<svg width="312" height="312" fill="none" xmlns="http://www.w3.org/2000/svg"><path fill-rule="evenodd" clip-rule="evenodd" d="M295.57 231.392c-9.349 16.701-81.632-16.488-115.709-9.05-28.746 6.273-84.304 64.568-100.605 53.204-16.303-11.365 23.681-68.247 11.414-100.965-11.878-31.684-83.227-78.993-73.157-94.868 10.072-15.875 71.737 13.854 105.142 5.279 30.982-7.954 89.782-59.956 105.362-49.417 15.58 10.538-15.528 65.298-2.987 98.112 12.939 33.854 79.888 81.004 70.54 97.705z" fill="#D9E8FF"/><path d="M117.14 76.547a.5.5 0 10.119.993l-.119-.993zm27.751-12.956a.5.5 0 10-.877-.48l.877.48zm-24.014 6.135a.5.5 0 10.118.993l-.118-.993zm15.634-6.29a.5.5 0 10-.877-.481l.877.48zm-10.479 11.75l.14.48-.14-.48zm-5.037-4.467c2.046-.245 5.26-.894 8.281-2.05 2.994-1.145 5.921-2.835 7.235-5.234l-.877-.48c-1.132 2.066-3.759 3.649-6.716 4.78-2.929 1.121-6.061 1.754-8.041 1.99l.118.994zm-3.736 6.821c2.314-.277 5.498-.88 8.913-1.875l-.279-.96c-3.364.98-6.494 1.572-8.753 1.843l.119.992zm8.913-1.875c3.554-1.035 7.374-2.5 10.731-4.475 3.352-1.972 6.277-4.474 7.988-7.599l-.877-.48c-1.593 2.907-4.351 5.295-7.618 7.217-3.264 1.92-7.002 3.357-10.503 4.377l.279.96zm136.67 78.309a.499.499 0 10.316-.948l-.316.948zm-8.895-10.198a.5.5 0 10-.894.448l.894-.448zm-75.932 91.103a.5.5 0 10.97.242l-.97-.242zM195.516 231a.501.501 0 00-.032-1l.032 1zm67.642-77.974c-1.389-.463-3.198-1.773-4.929-3.505-1.722-1.721-3.311-3.803-4.282-5.745l-.894.448c1.029 2.058 2.69 4.226 4.468 6.005 1.769 1.768 3.71 3.208 5.321 3.745l.316-.948zm-84.173 82.095c.043-.17.24-.505.81-.929.557-.414 1.422-.877 2.694-1.32 2.544-.886 6.656-1.673 13.027-1.872l-.032-1c-6.429.201-10.65.997-13.323 1.928-1.337.465-2.301.969-2.962 1.461-.649.482-1.06.993-1.184 1.49l.97.242z" fill="#B0E9AF"/><path fill-rule="evenodd" clip-rule="evenodd" d="M234.411 89.708c0-.068 0-.136-.034-.204-.873 0-1.71 0-2.549.034-.219.09-.445.166-.671.241-.359.12-.719.241-1.05.421-1.944 1.057-2.936 3.162-3.642 5.151-.347-.025-.529-.041-.485-.061-1.642-2.995-6.765-5.366-9.376-2.175-1.846 2.257-2.356 5.251-1.738 8.06.174.274.923.572 1.702.883 1.049.418 2.154.858 1.99 1.29-.554 1.458-1.699 2.433-2.811 3.381-.384.328-.765.652-1.116.992-.326.316-.756.675-1.205 1.05-.743.621-1.541 1.287-2.01 1.877-2.124 2.671-4.468 5.654-5.386 9.438-.076.315-.165.628-.253.939-.328 1.155-.649 2.286-.296 3.439.101.332-.087.751-.275 1.168-.203.452-.405.903-.239 1.239 1.542 3.122 5.218 3.241 8.094 3.207.507-.006 1.017-.017 1.527-.028 2.654-.058 5.343-.116 7.933.537.824.208.904 1.291.888 1.946-.049 1.943-.161 2.747-.297 3.728-.099.713-.211 1.52-.322 2.925-.01.131 5.595-.107 11.092-1.879 4.816-.84 10.063-5.185 10.371-5.439l.013-.011c.363-.298.857-1.272.99-1.704 1.074-3.509 1.466-7.199 1.523-10.858.118-7.552-1.378-15.077-3.992-22.143-1.043-2.822-3.258-5.044-5.734-6.659-.756-.492-1.697-1.002-2.642-.785zm-.529 47.599c4.199-1.353 8.336-3.602 9.858-7.266 1.987-4.785-.973-12.191-3.584-18.726-1.773-4.436-3.386-8.471-3.182-11.012.336-4.172-7.964-4.769-10.361-4.941l-.148-.011a9.14 9.14 0 01-.095.261c-.261.698-.667 1.783.147 2.27-.443.828.104 1.804.567 2.463.217.308-.02 2.84-.357 6.429-.787 8.401-2.117 22.591.564 27.608 1.501 2.808 3.983 3.381 6.591 2.925zm-123.669 30.704c.355.114.599.193.67.195 2.625.077 8.057-.114 10.665-.444.724-.092 1.436-.261 2.148-.43.502-.119 1.003-.239 1.509-.331a10.157 10.157 0 003.957-1.649c1.724-1.209 1.851-2.182-.42-3.392-1.008-.537-1.622-.499-2.43-.448a10.93 10.93 0 01-1.24.026c-1.724-.076-3.032.061-4.294.194-1.554.164-3.04.32-5.151.063a53.008 53.008 0 00-1.233-.131h-.002c-1.993-.197-4.284-.423-5.982-1.497-2.649-1.676-4.434-3.192-5.438-4.606-1.455-2.052.049-1.716 1.439-1.405.855.191 1.666.372 1.72-.017.078-.568.243-.804.409-1.041.166-.237.333-.475.419-1.046.196-1.296.054-3.161-.253-4.428-.512-2.105-1.376-4.079-2.24-6.052-.784-1.791-1.568-3.582-2.089-5.473-.53-1.92-.169-4.411 1.706-5.501 1.407-.818 3.018-.382 4.514.023.466.126.921.25 1.355.331 2.012.378 6.548-.953 7.948-2.203.723-.644.599-1.265.458-1.966-.13-.645-.273-1.358.22-2.22.165-.288.772-.352 1.35-.412.654-.068 1.272-.133 1.169-.515-2.455-9.079-4.064-12.403-9.212-16.883-.516-.449-1.574-.84-2.599-1.22-.864-.32-1.705-.631-2.179-.961-.408-.284-.441-.749-.478-1.266-.026-.366-.053-.757-.217-1.13-.215-.492.531-1.591 1.132-2.478.356-.525.662-.976.688-1.182.278-2.219-.463-4.531-2.002-5.77-2.079-1.675-3.561-1.58-5.78-.012-.244.172-.432.441-.622.713-.316.45-.637.908-1.225.947-.163.011-.33-.18-.449-.317a1.464 1.464 0 00-.09-.1 13.163 13.163 0 01-.29-.289c-.243-.246-.486-.493-.766-.693-1.656-1.179-3.138-1-5.053-.317-4.836 1.723-7.244 6.193-8.936 10.586-1.4 3.64-1.827 7.426-2.259 11.253-.276 2.445-.553 4.907-1.088 7.359-.406 1.86-.729 4.263-1.095 6.99-.576 4.29-1.26 9.38-2.544 14.42-3.32 13.033-8.603 26.474-10.833 30.524-1.387 2.516-4.375 8.254-4.698 10.396-.716 4.748-1.203 6.416-3.383 9.604-2.482 3.632-7.083 4.733-11.262 5.734-1.502.359-2.95.706-4.225 1.152-1.106.387-2.443.57-3.802.755-2.174.297-4.406.602-5.843 1.766-1.179.955-1.841 2.356-2.478 3.703-.115.244-.23.485-.345.722-.067.136-.134.264-.198.387-.34.653-.603 1.158-.426 2.023a.709.709 0 00-.252.082c0 1.055 0 2.076.034 3.097.293.435.34.701.394.993.042.234.087.486.264.855.75 1.563 1.43 2.695 2.782 3.819 1.585 1.318 3.887 2.588 5.728 3.484 6.913 3.362 15.474 7.357 23.064 3.521 2.103-1.065 3.262-2.129 4.753-3.934.626-.758 1.115-1.924 1.433-2.838.015-.042.024-.121.034-.215.025-.219.057-.515.194-.585.326-.165.527-.063.746.049.134.067.274.139.453.155 1.517.139 3.041.218 4.565.256 4.499.112 8.189.019 12.552-.092h.001l1.202-.031 1.534-.037c4.757-.115 10.481-.254 14.987-.639 1.163-.1 2.182-.609 3.201-1.12.973-.487 1.947-.974 3.048-1.105.944-.113 1.903-.156 2.865-.198 1.89-.083 3.788-.166 5.589-.788 1.091-.376 1.511-1.592 1.853-2.584l.091-.262c.154-.437.344-.992-.117-1.376.391-1.455-.917-2.705-1.831-3.564-1.487-1.397-3.557-1.976-5.516-2.28-.87-.135-1.753-.16-2.635-.186l-.163-.004-.082-.003-.173-.005c-.649-.021-1.299-.013-1.948-.006-.357.005-.713.009-1.07.008l-1.082.002c-.848.003-1.696.006-2.544-.018h-.009c-.092-.003-.226-.007-.252-.092-.037-.122.041-.263.123-.358.271-.309.569-.593.866-.877.323-.309.646-.617.935-.957a18.247 18.247 0 002.726-4.324c2.927-6.495 1.955-13.907.557-20.646-.04-.195-.315-.751-.689-1.509-1.106-2.236-3.077-6.225-2.438-7.844.624-1.583 4.338-.388 5.9.115zm149.119 56.517c3.088 2.457 6.922 3.717 10.736 4.492h5.133c.698-.142 1.308-.251 1.884-.354 1.286-.23 2.399-.43 3.926-.887 5.043-1.513 9.922-3.827 13.924-7.302.674-.586 2.767-2.993 3.209-3.778.609-1.081 1.081-2.239 1.506-3.406.052-.142.033-.323.013-.508-.034-.317-.069-.646.25-.813a51.246 51.246 0 000-3.233c-.127-.369-.226-.672-.312-.932-.377-1.149-.48-1.462-1.395-2.932-2.258-3.636-6.5-5.516-10.566-6.264-1.053-.195-2.143-.342-3.245-.49-3.437-.463-6.985-.94-9.864-2.931-2.61-1.802-2.898-5.318-3.135-8.213l-.01-.128c-.013-.159.009-.533.038-1.027.067-1.129.17-2.887-.023-4.152.257-.061.433-.105.52-.131 1.288-.379 2.355-1.809 1.912-3.179-.36-1.111-1.53-1.522-2.553-1.881a14.963 14.963 0 01-.676-.249 157.24 157.24 0 00-.492-.201c-1.796-.731-2.443-.994-4.26-2.202-2.5-1.66-4.08-3.651-5.727-5.727h-.001c-1.436-1.81-2.924-3.685-5.118-5.46-5.249-4.248-8.167-13.768-10.161-20.276l-.019-.062c-.282-.921-.453-1.706-.631-2.524-.116-.533-.235-1.08-.39-1.689a21.285 21.285 0 01-.284-1.408v-.001c-.233-1.295-.458-2.549-.963-2.196-1.513 1.06-3.066 1.93-4.781 2.618-1.973.793-3.04 1.066-4.623 1.47v.001c-.497.126-1.044.266-1.685.439l-.375.101-.38.101-.001.001c-4.364 1.162-9.515 2.535-11.492 7.038a11.076 11.076 0 00-.66 2.018c-.319 1.419.497 8.183.802 7.947.039-.031 3.709.564 3.467 1.438-.348 1.256-2.089 2.066-2.719 2.359a6.346 6.346 0 00-.187.089c-.499.265-1.074.468-1.595.651-.843.297-1.545.544-1.559.927-.063 1.678-.383 2.681-.707 3.697-.114.356-.228.714-.332 1.104-.488.538-.783 1.294-.317 1.647-.006.05.025.066.086.055.07.039.153.071.25.094 1.262-.582 2.631-.619 3.998-.546.137.157.267.33.392.496.183.241.354.468.518.611-1.173.321-1.446 2.154-1.644 3.475v.002c-.052.349-.099.663-.156.903-1.055 4.452-2.586 8.822-4.969 12.746-.162.266-.394.577-.648.918-1.003 1.345-2.357 3.161-1.17 4.612.847 1.036 2.26 1.361 3.493 1.612.085.017.406-.018.93-.098.379 1.303 1.267 2.64 1.868 3.144-.198.795.22 1.567.588 2.246l.05.092.07.131c.168.315.728 1.006 1.384 1.816 1.414 1.745 3.277 4.044 2.644 4.342-1.21.57-3.896.771-6.656.977-2.956.222-5.998.449-7.407 1.143-1.426.703-3.119 1.537-3.757 3.134-.498 1.247.306 2.595 1.326 3.283 1.705 1.15 3.513 2.304 5.559 2.738.248.053.821-.039 1.541-.155 1.305-.211 3.091-.499 4.299-.143.686.203 1.028.747 1.378 1.303.39.622.79 1.259 1.691 1.456 2.016.443 5.249.733 7.304.848 5.535.312 11.802.606 17.348.392 1.215-.046 2.421-.22 3.628-.395 1.697-.245 3.395-.49 5.114-.379.66.043.979.655 1.261 1.194.086.166.17.326.258.46 1.122 1.692 1.743 2.616 3.347 3.891zm-42.838-31.518c-.156-.535-.225-1.064-.155-1.527.43-2.838 43.518-9.685 52.323-11.085h.001l.01-.001c.956-.152 1.505-.24 1.548-.25.689-.168 1.027.524 1.18 1.523-5.487 1.304-47.981 10.28-54.907 11.34zm3.254-25.277c.348.018.697.044 1.043.069.589.044 1.171.086 1.74.093 2.601.03.991-1.707-2.089-1.771-.551-.011-1.1-.066-1.65-.121-.681-.067-1.362-.135-2.044-.121-.32.007-.707.26-1.017.601a11.705 11.705 0 00-.317 1.646v.001c.026.02.055.038.086.055.107-.018.309-.115.574-.244.673-.325 1.756-.85 2.767-.793.336.02.635.272.907.585zm-76.553 44.134c-.02-.097.074-.085.198-.069.323.042.855.11.147-1.644-.453-1.124-2.127-2.591-3.64-3.915-1.288-1.128-2.458-2.153-2.653-2.775-.75-2.386-1.916-6.285-2.451-8.61-.336-1.468-.401-2.959-.461-4.325-.118-2.677-.214-4.868-2.292-5.445-6.631-1.843-6.484-7.632-6.484-7.632s-2.719-6.037 9.097-5.961c3.67.025 8.082-.597 10.338-3.137 1.558-1.754 1.006-5.499 1.006-5.499s-11.9-9.631-1.184-19.569c.617-.573 8.309-7.894 10.092-9.812.284-.305-.557-1.032-1.69-2.012-1.428-1.235-3.321-2.872-4.011-4.571-1.631-4.02-1.344-6.929-1.019-7.877.027-.078.066-.182.113-.31l.001-.001v-.001c.459-1.233 1.715-4.601.521-6.768-2.532-4.593-3.242-11.967 1.906-16.323 2.345-1.984 5.398-.06 7.403 2.649.973 1.313.957 1.712.948 1.935-.007.176-.009.242.484.561.256.167.79-.186 1.576-.708 2.845-1.885 9.001-5.965 17.337 4.458.317.397.623-.401 1.077-1.586 1.04-2.714 2.856-7.456 7.369-4.532 4.194 2.716 1.137 8.707-.631 12.172v.001c-.525 1.028-.936 1.834-1.01 2.266-.155.901-.757 1.236-1.318 1.549-.741.413-1.412.787-.884 2.375 1.125 3.382.483 10.166-.912 12.447-1.31 2.144-2.049 3.091-2.424 3.572-.239.306-.331.424-.331.543 0 .075.037.15.098.273.032.066.071.145.115.244.614 1.403 1.601 2.406 2.792 3.615 1.707 1.733 3.832 3.89 5.877 8.257 2.827 6.036 1.762 7.692.731 9.298-.572.89-1.134 1.764-1.017 3.361.106 1.445-1.508 2.828-3.122 4.212-1.57 1.345-3.141 2.691-3.129 4.095.019 2.525 2.807 5.315 2.807 5.315 1.31-.87 23.737 1.36 22.524 7.272-.617 3.007-2.143 5.02-6.765 6.869-2.118.847-5.129 1.089-7.53 1.283-2.241.181-3.95.318-3.904.865.348 4.133.608 8.509.314 10.204-.78 4.503-2.661 6.266-4.096 7.61-.516.484-.974.913-1.303 1.397-1.223 1.798-.153 2.047-.02 2.079l.013.003c1.039.708 1.979 2.055 1.452 3.365-.278.694-.885 1.253-1.52 1.609-2.363 1.321-5.086 1.821-7.732 2.173-6.842.911-15.432-.522-22.233-1.712-.919-.16-2.057-.185-3.244-.211-3.204-.069-6.765-.145-7.326-2.922zm72.463-49.117c.057 2.498.124 5.438-2.416 6.584-.665.3-1.356.55-2.062.737-1.006.268-2.288.466-3.191-.237-1.083.345-2.231-.855-1.86-1.924.142-.41.325-.535.518-.668.17-.116.348-.239.514-.563.221-.429.351-.903.456-1.372.104-.471.174-.955.166-1.436-.017-.964-.048-1.936-.238-2.879-.081-.4-.26-.82-.442-1.251h-.001v-.001c-.404-.95-.829-1.952-.282-2.909.317-.555.971-.716 1.532-.802 2.105-.318 4.501-.246 6.221 1.194.839.702.901 1.803.96 2.842.024.409.046.808.115 1.17-.014.471-.002.982.01 1.514v.001zm-19.317.255c0-.562.006-1.335.333-1.838.334-.511.598-.398 1.137-.167l.13.056.082.034c.364.15 3.891.671 5.343.551.157-.013.342-.039.544-.069 1.067-.154 2.612-.377 2.945 1.016.227.948.12 3.237-.644 3.787-.885.636-1.964.372-3.032.112-.226-.055-.451-.11-.675-.157-.464-.096-.941-.168-1.415-.24-2.134-.324-4.209-.638-4.748-3.085zm6.949-6.074c-.197-.722-.471-1.734-1.374-1.685-.93-.309-1.941-.558-2.94-.575.122-.312.229-.622.318-.877v-.001l.082-.234c.096-.271.17-.549.245-.827v-.001c.069-.259.138-.518.225-.772.079-.231.179-.46.279-.691.238-.547.479-1.102.46-1.707-.017-.527-.094-1.179-.562-1.522-.164-.12-.58-.322-.722-.027-.274.572-.331 1.202-.387 1.827-.024.274-.049.547-.092.814.018.254.006.514-.048.763-.082.368-.463.384-.791.398-.128.005-.247.01-.338.035-.427.118-.643.351-.843.749-.415.822-.408 1.823-.167 2.58-1.483.765-3.151 2.845-1.909 4.492a5.3 5.3 0 00.814.885c.333.278 5.018-1.216 7.111-1.884h.002c.505-.161.859-.274.964-.302.064-.016.084-.12.07-.184a4.077 4.077 0 00-.185-.587 6.876 6.876 0 01-.108-.304c-.035-.106-.068-.229-.104-.363zm-6.655-1.753l.035-.019c.73-.367 1.514-.5 2.306-.488-.274.699-.623 1.415-1.009 1.587-.559.248-1.077-.279-1.332-1.08zm-66.373 2.11c.693.577 1.855 2.107.723 2.837-.588.378-.816-.16-1.058-.73-.2-.473-.41-.967-.842-.976a226.224 226.224 0 00-4.359-.032h-.003c-.887-.001-1.774-.001-2.661-.009-.133-.001-.403-.004-.488-.157-.071-.128.05-.399.125-.491l.122-.148c.876-1.066 1.793-2.181 3.038-2.834a2.89 2.89 0 01.702-.259c-.013.234-.003.439.061.571.09.19.301.093.455.021a.907.907 0 01.116-.048.542.542 0 01.104-.012c.125-.008.285-.018.28-.169-.004-.124-.007-.26-.009-.404.244.032.485.091.722.173.011.152.037.274.091.33a1.231 1.231 0 00.462.302c.146.054.273-.029.378-.182a7.006 7.006 0 011.852 1.707.71.71 0 01.104.269c.021.084.041.169.085.241zm-2.041-2.217c.272-.395.404-1.262.367-1.496a3.436 3.436 0 00-.254-.8 8.458 8.458 0 00-.407-.734c-.118-.188-.413-.154-.531.014-.077.108-.031.231.013.346.019.053.039.103.045.15.025.173-.032.329-.089.486-.051.143-.103.285-.094.44.03.098.024.317.017.558-.006.199-.012.412.002.586.321.112.633.266.931.45zm-1.653-.623c-.009-.656.006-1.49.018-2.232v-.001c.007-.402.014-.777.016-1.083.002-.296.058-.598.115-.902.103-.553.208-1.113-.013-1.648-.201-.486-.874-.16-1.134.009-.611.4-.726 1.255-.475 1.892.089.29.099.551.109.814.009.25.019.5.097.778.041.148.111.286.181.424.074.146.147.291.187.447.051.201.005.557-.042.928a9.577 9.577 0 00-.066.615 2.921 2.921 0 011.007-.041z" fill="#fff"/><path fill-rule="evenodd" clip-rule="evenodd" d="M175.984 155.227a3.086 3.086 0 013.098.654 50.555 50.555 0 01-8.804 2.731c-.704.149-1.429.29-2.042.666-.377.23-.708.547-1.126.69a5.328 5.328 0 012.691-3.328c1.246-.635 2.506-1.28 3.559-2.199 1.053-.92 1.894-2.157 2.052-3.544.775.275 1.203 1.15 1.21 1.971.007.82-.319 1.603-.638 2.359z" fill="#00160A"/><path fill-rule="evenodd" clip-rule="evenodd" d="M186.497 158.642c1.42-1.79 2.598-3.903 2.649-6.184.058-2.636-1.375-5.047-2.761-7.293l-7.638-12.381c2.983 1.363 5.168 3.999 7.061 6.672 2.059 2.909 3.932 6.038 4.72 9.511.787 3.472.357 7.362-1.837 10.171-.687.879-1.523 1.629-2.354 2.374l-2.009 1.801c-.676.605-1.353 1.212-2.088 1.744a13.173 13.173 0 01-8.521 2.445l.095-1.773c4.985-.287 9.585-3.182 12.683-7.087zm-34.448-7.876a12.54 12.54 0 004.646 6.396c1.023.729 2.224 1.383 2.699 2.543-.955.057-1.875-.327-2.741-.732-1.642-.768-3.296-1.684-4.356-3.152-1.06-1.468-1.359-3.624-.248-5.055zm-2.36 46.675c.681-.306 1.476.188 1.894.805.418.617.625 1.364 1.086 1.951.275-.662-.085-1.394-.295-2.079-.211-.685-.142-1.632.54-1.857l3.919 7.396c.203.384.412.791.392 1.225-.019.434-.363.884-.797.855-.268-.018-.49-.204-.689-.382a42.902 42.902 0 01-6.153-6.818c-.165-.228-.336-.51-.237-.773.057-.149.193-.257.34-.323zm36.958 7.099c1.178-1.937 1.366-4.296 1.496-6.558.055-.96.106-1.921.151-2.881a10.024 10.024 0 011.194 7.454 10.053 10.053 0 01-4.405 6.141c-.58.363-1.223.689-1.595 1.264-.371.574-.306 1.498.321 1.774.326-.192.136-.812-.242-.79.149-.287.555-.362.853-.234.299.128.506.404.669.684a4.695 4.695 0 01.476 3.507 4.708 4.708 0 01-2.136 2.825c-.51.302-1.115.508-1.694.38-.579-.127-1.088-.676-1.007-1.262.065-.466.454-.809.72-1.198a2.531 2.531 0 00.262-2.304 2.54 2.54 0 00-1.755-1.523c-.925-.218-1.879.1-2.82.236-3.055.442-6.054-1.06-8.57-2.845.243-.9 1.267-1.413 2.2-1.367.933.045 1.787.519 2.575 1.019-.204.308-.077.748.196.997s.651.345 1.017.402c2.132.33 4.279-.415 6.25-1.292 2.27-1.011 4.555-2.31 5.844-4.429zm-20.361-51.097c1.023.962 1.121 2.59.695 3.927-.381 1.193-1.229 2.343-2.451 2.632-.438.103-.893.09-1.342.074-.819-.03-1.694-.087-2.347-.581-.385-.292-.653-.709-.889-1.13a12.67 12.67 0 01-.876-1.923c-.211-.587-.38-1.201-.357-1.824.024-.623.262-1.261.748-1.654.485-.393 1.237-.478 1.738-.106.502.372.6 1.218.125 1.625a4.05 4.05 0 003.058-.188c-.391-.378-.107-1.122.409-1.299.515-.178 1.092.074 1.489.447zm-.905 2.562a9.44 9.44 0 01-3.644.454 2.135 2.135 0 01-.398-.058c-.246.752.174 1.637.882 1.996.707.359 1.617.211 2.232-.29.615-.501.937-1.31.928-2.102z" fill="#00160A"/><path fill-rule="evenodd" clip-rule="evenodd" d="M174.144 215.105c.069-.33.219-.649.459-.887.169-.168.38-.293.609-.361.052-.015.109-.027.158-.007.05.02.083.068.111.114.637 1.051.426 2.537-.478 3.371a2.255 2.255 0 01-.859-2.23zm-3.196-86.833a13.266 13.266 0 01-8.768 1.755c-1.078-.163-2.156-.47-3.06-1.08-.903-.61-1.617-1.555-1.769-2.632 1.201.185 2.25.889 3.392 1.306 2.441.89 5.218.407 7.545-.747 2.326-1.155 4.28-2.925 6.165-4.708.263 1.225-.08 2.529-.76 3.582-.68 1.052-1.672 1.874-2.745 2.524zm-8.202 19.565a6.522 6.522 0 00.398 2.832c.258.681.636 1.345.646 2.072.005.381-.148.82-.512.933-.252.078-.533-.032-.726-.212-.193-.18-.315-.421-.431-.657-.423-.858-.833-1.763-.829-2.719.003-.957.535-1.977 1.454-2.249zm-11.801 68.36c-.364.729-1.27 1.124-2.065.942-.796-.182-1.426-.898-1.552-1.703-.126-.804.234-1.653.868-2.165.285-.23.62-.396.974-.485.781-.194 1.617-.002 2.337.358l-.29 1.989c-.053.364-.108.735-.272 1.064zm28.275 1.184c-.036.043.043.128-.006.157-.292.17-.684.053-.93-.18a1.224 1.224 0 01-.352-1.115c.052-.257.188-.491.345-.702.238-.322.53-.605.86-.833.678.705.716 1.928.083 2.673z" fill="#00160A"/><path fill-rule="evenodd" clip-rule="evenodd" d="M149.978 209.593c.738-.049 1.475-.177 2.214-.141.739.036 1.506.26 2.01.8a15.202 15.202 0 01-9.757.705c-.417-.11-.862.142-1.107.496s-.332.79-.407 1.213c-.126.709-.231 1.456.009 2.135.239.678.938 1.251 1.644 1.103-.01-.491.009-.993.188-1.45.18-.457.549-.864 1.029-.974.48-.109 1.05.161 1.17.636.206.814-.857 1.736-.327 2.389.186.229-.05.558-.288.734-1.75 1.289-4.497.934-5.86-.757-1.362-1.692-1.117-4.443.523-5.869.309-.269.309-.77.117-1.131-.192-.362-.528-.621-.847-.88-4.117-3.344-6.623-8.578-6.646-13.873-.002-.448.032-.943.349-1.261.316-.318 1.003-.241 1.069.203.591 3.953 1.904 7.895 4.452 10.981 2.548 3.086 6.465 5.208 10.465 4.941zm18.784-89.875c.001.479-.199.935-.417 1.362-.475.931-1.075 1.829-1.926 2.437-.851.609-1.991.889-2.971.521-.815-.305-1.426-1.016-1.791-1.804s-.513-1.657-.641-2.516c-.053-.357-.103-.726-.014-1.077.088-.35.35-.682.708-.743.403-.069.772.208 1.125.415 1.36.794 3.055.645 4.616.431.282-.039.585-.076.839.052.324.165.472.559.472.922zm-1.959 1.007a17.531 17.531 0 00-3.015-.444c-.266-.016-.535-.026-.797.024a3.026 3.026 0 002.112 1.58c.701-.08 1.279-.594 1.7-1.16zm-11.102-10.573c2.379.296 3.419 3.624 3.419 3.624-.038.299-.047.566-.291.726-.243.16-.57.14-.841.032-.27-.108-.502-.293-.741-.459-.496-.344-1.041-.615-1.522-.98-.481-.365-.906-.85-1.032-1.439-.125-.589.13-1.285.686-1.52.105-.045.242-.066.322.016z" fill="#00160A"/><path d="M174.544 114.134a7.524 7.524 0 002.115-1.312c.253-.224.506-.499.522-.836.023-.481-.484-.861-.967-.858-1.134.044-2.717.952-3.366 1.4-.396.13-.546.273-.654.614-.107.34.042.728.314.96.273.231.646.319 1.003.302.358-.018.703-.133 1.033-.27z" fill="#00160A"/><path fill-rule="evenodd" clip-rule="evenodd" d="M141.491 158.166c2.786 3.592 6.898 6.137 11.363 7.033l-.314 2.38c-3.483-.943-6.913-2.282-9.778-4.469-2.864-2.187-5.132-5.301-5.764-8.843-.785-4.404 1.041-8.958 3.897-12.407s6.658-5.972 10.451-8.362c.659-.416.754-1.382.445-2.097-.308-.714-.911-1.251-1.448-1.815-4.096-4.295-4.73-11.463-1.452-16.406-3.528-4.386-5.054-10.312-4.083-15.85.336-1.91 1.027-3.882 2.547-5.091 2.059-1.64 5.194-1.392 7.387.063 2.194 1.454 3.568 3.874 4.425 6.357 3.336-2.404 7.768-3.23 11.749-2.187 2.452.642 4.676 1.93 6.865 3.205-.49-1.006.114-2.186.765-3.096 1.379-1.932 3.288-3.773 5.661-3.927 2.83-.183 5.341 2.26 5.998 5.012.658 2.75-.168 5.653-1.414 8.193s-2.911 4.863-4.095 7.432c-1.359-1.457-.089-3.742.957-5.437a20.865 20.865 0 002.416-5.621c.478-1.806.561-4.068-.941-5.183-1.771-1.315-4.331-.007-5.763 1.669-.724.847-1.194 2.395-.181 2.86 1.995.914 3.143 3.355 2.575 5.469a9.082 9.082 0 01-3.192-3.263c.425 5.472 3.709 10.424 4.088 15.9.358 5.167-2.278 10.594-6.9 12.957-5.662 2.895-12.509.866-18.838 1.527a1.718 1.718 0 01-.096 1.639c-1.425-1.278-3.19-2.651-5.053-2.201-.71.171-1.329.595-1.92 1.024a46.261 46.261 0 00-10.55 10.704c-1.051 1.49-2.034 3.094-2.343 4.889-.484 2.819.781 5.679 2.536 7.942zm15.004-27.87c4 1.498 8.341 2.086 12.598 1.706 3.396-.304 6.9-1.314 9.284-3.745 2.382-2.43 3.323-5.989 3.22-9.385-.103-3.396-1.142-6.689-2.252-9.901-.885-2.56-1.86-5.169-3.661-7.195a11.019 11.019 0 00-6.507-3.535 11.035 11.035 0 00-7.269 1.427c-2.16 1.294-3.795 3.281-5.393 5.223-2.697 3.275-5.471 6.629-6.835 10.642-1.363 4.013-1.018 8.898 1.978 11.902 1.332 1.336 3.068 2.198 4.837 2.861zm-.746-27.716c.891-.898.901-2.358.54-3.569a7.519 7.519 0 00-2.271-3.508c-.909-.786-2.105-1.364-3.291-1.16-1.016.174-1.871.908-2.398 1.791-.527.884-.766 1.907-.926 2.922a21.97 21.97 0 00.968 10.628c.124.354.301.748.66.862.348.109.71-.095 1.009-.302a13.388 13.388 0 004.992-6.597 5.766 5.766 0 00-2.954 3.038c-.757-.481-.855-1.609-.445-2.405.409-.797 1.184-1.332 1.94-1.815.361-.23.742-.462 1.169-.496.427-.035.907.196 1.007.611z" fill="#00160A"/><path fill-rule="evenodd" clip-rule="evenodd" d="M154.253 158.625c-1.222 2.01-3.473 5.414-.372 9.906l-2.439 1.989s-29.471-.89-25.273 4.447l.604 6.663s4.502 6.112 34.992 7.191c0 0 5.489 6.771 1.014 11.983 0 0 1.151 3.243-2.198 6-4.418 3.636-13.487 7.219-11.858 9.264 0 0 .292 4.688 17 5.3 0 0 15.27.663 19.226-3.473 0 0 .47-3.099-8.159-4.998-5.085-1.091-6.965-6.093-5.805-12.093 0 0 3.79-11.445 6.952-12.308 0 0 26.319.467 28.418-4.195 0 0 1.712-2.724 1.08-6.473 0 0-1.514-4.272-26.008-6.358l-4.637.398s6.696-4.614 2.831-9.903c0 0-.631-2.325-9.796-1.547 0 0-4.154-2.635-8.615-3.945 0 0-5.788.227-6.957 2.152z" fill="#fff"/><path fill-rule="evenodd" clip-rule="evenodd" d="M83.534 178.904c.59.33 1.175.668 1.77.989.26.141.563.209.802.374 2.045 1.418 3.804 3.127 5.163 5.217.368.566.713 1.163.956 1.787.456 1.175.917 2.361 1.21 3.582.23.952.265 1.961.287 2.948.028 1.278.162 2.586-.525 3.772.316.872-.193 1.622-.489 2.333-.382.92-.573 1.948-1.377 2.706-.428.403-.587 1.086-.881 1.635-.062.114-.201.185-.28.293-.137.185-.254.385-.38.578.223.089.438.231.667.26a50.19 50.19 0 002.993.321c.35.024.708-.128 1.065-.173 1.046-.13 2.031-.46 3.002-.854.712-.289 1.379-.648 2.047-1.031 1.606-.921 2.872-2.156 4.005-3.607.532-.68.948-1.419 1.42-2.127.286-.428.394-.97.617-1.445.233-.493.595-.941.744-1.456.22-.763.261-1.577.451-2.352.505-2.067.462-4.181.603-6.28-.522-.663-.051-1.454-.297-2.192-.241-.724.012-1.611-.229-2.334-.276-.828-.424-1.678-.657-2.51-.186-.665-.218-1.377-.433-2.031-.47-1.432-1.031-2.834-1.517-4.26-.249-.73-.376-1.503-.631-2.231-.192-.55-.521-1.051-.74-1.595-.051-.126.047-.388.163-.494.455-.418 1.602-.118 1.814.474a183.264 183.264 0 011.66 4.775c.196.599.236 1.25.413 1.857.298 1.024.7 2.02.961 3.052.215.854.278 1.746.432 2.617.101.569.248 1.13.368 1.695.049.231.099.463.119.697.055.641.123 1.282.133 1.924.021 1.32.039 2.643-.005 3.962-.028.828-.077 1.677-.287 2.473-.206.773-.306 1.576-.546 2.352-.202.654-.56 1.326-.596 2.073-.02.416-.339.815-.515 1.225-.092.215-.134.458-.257.652-.367.576-.855 1.093-1.13 1.707-.725 1.62-1.986 2.789-3.219 3.981-.37.357-.006.445.138.45 1.049.029 2.1.016 3.151.016h.476c1.858 0 3.718-.026 5.576.016.491.011.975.245 1.468.349.447.094.912.11 1.35.23 1.175.322 2.324.705 3.152 1.687.384.453.88.836 1.171 1.34.42.728.96 1.461.707 2.404.501.418.237.905.116 1.373-.287 1.111-.727 2.05-1.945 2.84-1.213.788-2.469.964-3.799 1.021-1.268.055-2.539.011-3.808.013-.553.001-1.167-.148-1.646.042-.909.358-1.866.633-2.679 1.236-.811.601-1.777.833-2.777.892-1.707.1-3.415.201-5.124.27-2.082.083-4.165.128-6.248.201-1.718.061-3.436.169-5.155.204-3.2.066-6.4.118-9.6.133-1.59.007-3.182-.079-4.772-.128-1.319-.04-2.637-.087-3.956-.138-.121-.006-.239-.102-.36-.106-.333-.014-.677-.042-.992.034-.072.017.012.462-.074.667-.247.584-.543 1.147-.823 1.718-.168.342-.29.725-.526 1.013-.504.614-1.033 1.216-1.617 1.751a20.86 20.86 0 01-2.18 1.763c-.447.309-1.029.418-1.507.691-1.103.631-2.29 1.004-3.528 1.237-.273.052-.548.13-.824.139-1.024.034-2.048.043-3.072.061-.114.001-.227-.002-.34 0-.763.004-1.514-.304-2.216-.323-.761-.022-1.448-.189-2.148-.366a42.402 42.402 0 01-3.287-.953 21.44 21.44 0 01-2.576-1.084c-1.553-.774-3.072-1.614-4.618-2.404-.78-.398-1.607-.71-2.378-1.126-1.625-.876-3.048-2.022-4.3-3.378-.354-.384-.813-.732-1.011-1.188-.237-.546-.595-1.039-.824-1.595-.247-.604-.28-1.284-.658-1.844-.034-1.019-.034-2.037-.034-3.09a.707.707 0 01.252-.081c-.186-.905.113-1.672.624-2.406.211-.304.352-.669.463-1.026.43-1.382 1.32-2.449 2.36-3.389.966-.869 1.959-1.725 3.026-2.461.88-.607 1.88-1.044 2.84-1.531a17.903 17.903 0 011.805-.812c.712-.266 1.434-.546 2.176-.672.646-.11 1.18-.482 1.9-.498.77-.018 1.512-.608 2.296-.849.952-.292 1.89-.618 2.76-1.087.741-.399 1.468-.853 2.116-1.385a7.73 7.73 0 001.512-1.656c.32-.479.392-1.116.633-1.657.294-.656.376-1.357.54-2.041.351-1.468.709-2.934 1.09-4.395a24.84 24.84 0 01.684-2.24c.2-.548.525-1.052.732-1.598.213-.563.314-1.168.533-1.728.27-.688.6-1.353.922-2.018.53-1.099 1.046-2.204 1.621-3.279.43-.805.967-1.552 1.415-2.349.261-.463.402-.994.669-1.453.29-.499.697-.929.99-1.428.324-.549.535-1.167.87-1.708.636-1.03 1.348-2.012 1.984-3.043.336-.544.538-1.172.873-1.718.493-.804 1.083-1.548 1.57-2.354.343-.565.548-1.212.88-1.784.3-.518.742-.956 1.027-1.48.395-.725.667-1.516 1.055-2.245.67-1.254 1.424-2.465 2.07-3.731.339-.663.492-1.418.788-2.107.2-.462.565-.855.744-1.322.261-.679.385-1.409.635-2.093.247-.673.767-1.298.83-1.975.106-1.159.499-2.237.77-3.336.4-1.63.674-3.265.76-4.926.108-2.06.099-4.126.154-6.19.027-1 0-2.014.158-2.995.152-.942.069-1.896.258-2.821.147-.715.212-1.43.277-2.153.065-.723.226-1.443.401-2.151.158-.636.375-1.304.45-1.909.111-.896.324-1.762.512-2.631.164-.756.512-1.47.737-2.215.152-.499.202-1.03.353-1.53.147-.491.363-.961.55-1.44.345-.891.734-1.768 1.022-2.678.179-.562.432-1.085.64-1.612.252-.643.512-1.306.766-1.96.194-.497.417-.987.68-1.45.454-.797.96-1.565 1.423-2.357.335-.575.57-1.22.966-1.746.58-.77 1.24-1.484 1.913-2.177.39-.401.828-.793 1.318-1.048.687-.357 1.428-.63 2.173-.847.578-.168 1.214-.328 1.795-.257.903.112 1.835.307 2.653.685.676.312 1.25.896 1.789 1.44.544.551.535.572 1.068-.045.793-.918 1.748-1.606 2.923-1.989.996-.324 2.016-.54 3.042-.375 1.52.244 2.922.787 3.928 2.055 1.136 1.431 1.742 3.058 1.637 4.88-.039.678-.337 1.352-.574 2.008-.186.516-.506.987-.664 1.508-.042.14.253.462.462.581.592.338 1.274.54 1.823.931a35.915 35.915 0 012.86 2.289c.971.854 1.933 1.731 2.8 2.687.721.794 1.336 1.694 1.928 2.593.451.685.856 1.416 1.167 2.174.35.853.465 1.81.87 2.629.871 1.761.901 3.629.897 5.507-.001.513-.276 1.02-.323 1.538-.025.27-.135.575-.13.74.034 1.072-.571 1.897-1.004 2.75-.425.837-.981 1.739-1.727 2.252-1.097.754-2.185 1.498-3.637 1.815-1.584.345-3.125.413-4.69.407a13.009 13.009 0 01-3.301-.421c-.747-.202-1.597-.396-2.218-.275-.777.152-1.545.855-2.107 1.502-1.348 1.551-1.337 3.437-.902 5.31.223.961.531 1.96 1.054 2.78.512.802 1.029 1.568 1.351 2.474.137.385.554.664.728 1.044.368.801.76 1.612.963 2.462.405 1.691.845 3.399.702 5.156-.052.639.096 1.328-.354 1.948-.177.246.079.769-.048 1.093-.486 1.238.695 1.655 1.126 2.437.565-.141.909.365 1.4.495.963.254 1.851.785 2.804 1.094.657.213 1.382.206 2.06.368 2.085.499 4.204.387 6.317.399 1.308.008 2.654-.191 3.915.053 1.571.303 3.193.324 4.717.795.839.258 1.602.8 1.685 1.863.086 1.112.323 2.269-.492 3.203-.372.425-.784.809-1.378 1.094-.747.36-1.501.679-2.284.926-.388.123-.834.049-1.242.129-.803.155-1.596.359-2.396.533-.418.09-.839.195-1.264.227-2.009.15-4.018.334-6.031.399-2.106.068-4.216.026-6.324.008-.684-.005-1.386-.007-2.046-.155-.495-.111-.976-.05-1.457-.114-1.657-.217-3.316-.421-4.965-.686a35.17 35.17 0 01-3.21-.679c-.918-.235-1.842-.493-2.713-.859-1.04-.438-2-1.068-3.042-1.497-1.424-.588-2.66-1.441-3.783-2.458-1.26-1.141-2.477-2.338-3.389-3.789a15.885 15.885 0 01-1.02-1.965c-.656-1.468-1.172-2.98-1.18-4.616-.003-.778-.122-1.58.03-2.326a15.51 15.51 0 01.971-3.078c.739-1.705 2.108-2.922 3.52-4.056.64-.512 1.477-.753 2.202-1.113 1.225-.608 2.446-.817 3.705-.673.788.09 1.597.261 2.388.644.95.46 1.864.931 2.621 1.635.845.786 1.6 1.669 2.377 2.526.348.383.648.809.978 1.21.032.04.164.063.171.049a.459.459 0 00.075-.235c-.038-.616-.065-1.233-.139-1.845-.055-.465-.211-.918-.256-1.383-.071-.726-.077-1.459-.13-2.187-.025-.329-.121-.653-.147-.983-.109-1.377-.193-2.755-.312-4.131-.027-.322-.241-.641-.22-.951.071-1.029.248-2.019.591-3.028.354-1.039.95-1.744 1.743-2.356.767-.592 1.682-.771 2.646-.688.306.026.309.013.128-.271-.874-1.371-1.03-2.879-.47-4.376.278-.743.858-1.373 1.311-2.048.038-.056.15-.063.227-.093.022.081.061.163.062.245.006.43-.016.861.008 1.289.031.558-.085 1.229.182 1.648.682 1.069 1.164 2.275 2.27 3.08 2.186 1.593 4.479 1.487 6.86.648.296-.104.546-.342.811-.528.211-.148.591-.325.579-.464a1.102 1.102 0 00-.438-.733c-.574-.382-.613-.938-.606-1.513.016-1.292 1.53-2.458 2.806-2.181.82.178 1.425-.309 1.392-1.22-.036-1.005-.165-2.008-.26-3.011-.055-.575-.037-1.176-.204-1.718-.214-.695-.696-1.316-.855-2.016-.203-.897-.75-1.622-1.087-2.443-.413-1.009-1.246-1.865-1.976-2.72a31.197 31.197 0 00-2.593-2.713c-.555-.507-1.267-.842-1.906-1.258-.536-.349-1.027-.813-1.611-1.033-1.306-.494-2.649-.895-3.992-1.28-.958-.275-1.96-.402-2.907-.705-1.048-.336-2.061-.786-3.078-1.213-.364-.153-.235-.115-.042-.415.504-.779 1.251-.563 1.89-.497.612.063 1.202.581 1.791.563 1.112-.035 2.166.732 3.33.107.808-.434 1.248-1.024 1.429-1.876.123-.582.341-1.157.369-1.742.056-1.213-.353-2.303-1.082-3.28-.611-.82-1.529-.907-2.412-.986-1.131-.102-2.111.418-3.089.925-.957.498-1.6 1.332-2.306 2.085-.365.39-.492.995-.755 1.488-.29.542-.624 1.06-.919 1.6-.125.229-.176.499-.305.724-.94 1.638-1.832 3.341-3.593 4.258-.614.319-1.253.595-2.027.69-.618.075-1.217.196-1.793.009-.579-.187-1.107-.535-1.65-.826-.064-.034-.133-.202-.111-.224.068-.072.175-.112.272-.15.182-.071.367-.018.582-.093.95-.333 1.961-.481 2.935-.751.265-.074.453-.401.718-.506 1.557-.613 2.649-1.686 3.425-3.16.75-1.426.39-4.198-.834-5.21-.324-.267-.817-.383-1.252-.452-.617-.099-1.272-.2-1.873-.093-.528.095-1.008.47-1.503.733-2.24 1.193-3.466 3.3-4.782 5.321-.345.531-.725 1.056-.961 1.636-.277.68-.811 1.215-.943 1.988-.08.467-.536.858-.722 1.323-.206.516-.263 1.09-.446 1.617-.268.77-.62 1.51-.88 2.283-.131.393-.099.838-.21 1.24-.13.465-.379.899-.496 1.365-.111.447-.1.922-.178 1.379-.308 1.794-.64 3.585-.942 5.38-.085.499-.084 1.012-.145 1.516-.174 1.446-.365 2.891-.539 4.337-.06.5-.1 1.003-.137 1.505-.051.687-.023 1.387-.154 2.057-.184.938-.085 1.896-.267 2.82-.293 1.485-.288 3.001-.538 4.486a153.39 153.39 0 01-.959 5.24c-.147.72-.459 1.405-.643 2.119-.18.694-.236 1.423-.447 2.105-.25.808-.731 1.559-.881 2.377-.142.773-.543 1.381-.804 2.063-.392 1.019-.735 2.028-1.364 2.94-.294.426-.364.999-.62 1.458-.394.707-.88 1.363-1.29 2.062-.226.386-.367.821-.564 1.226a11.24 11.24 0 01-.488.896c-.343.569-.68 1.143-1.052 1.693-.553.817-1.16 1.598-1.696 2.425-.463.717-.846 1.485-1.285 2.217-.581.969-1.171 1.934-1.78 2.886-.37.58-.808 1.119-1.166 1.706-.233.38-.346.834-.57 1.222-.425.733-.911 1.431-1.33 2.168-.182.32-.235.711-.393 1.048-.261.557-.654 1.07-.818 1.65-.185.649-.573 1.187-.79 1.82-.392 1.149-1.01 2.218-1.486 3.339-.19.448-.22.961-.391 1.419-.176.472-.485.899-.643 1.376-.159.479-.132 1.024-.31 1.491-.558 1.455-.757 3-1.207 4.48-.21.69-.273 1.44-.571 2.084-.42.906-.7 1.892-1.515 2.608-.729.639-1.252 1.53-2.02 2.103-1.074.803-2.03 1.837-3.45 2.115-.268.053-.466.402-.738.507-.699.269-1.485.365-2.119.733-1.078.625-2.276.881-3.41 1.327-.731.287-1.46.584-2.203.837-1.351.459-2.571 1.173-3.81 1.86-.92.51-1.771 1.092-2.492 1.858-.669.712-1.506 1.33-1.966 2.157-.824 1.479-1.42 3.093-1.403 4.831.007.793-.056 1.715.31 2.35.89 1.533 1.757 3.129 3.31 4.168.646.433 1.182 1.039 1.848 1.431.984.58 2.044 1.027 3.06 1.553.879.452 1.73.96 2.616 1.394.38.187.83.223 1.231.374.454.17.885.398 1.333.585.315.133.64.242.963.359.377.137.755.274 1.135.406.403.14.837.221 1.208.42.808.43 1.703.555 2.562.791 1.53.423 3.104.627 4.69.54.788-.044 1.565-.358 2.35-.367 1.09-.014 1.903-.701 2.82-1.07.92-.37 1.669-1.221 2.418-1.94.663-.637 1.44-1.289 1.779-2.097.468-1.122 1.095-2.188 1.332-3.428.39-2.036.23-3.982-.393-5.95-.327-1.032-.842-1.934-1.385-2.836-.7-1.161-1.564-2.167-2.74-2.887-.71-.435-1.367-.958-2.087-1.372-.327-.189-.754-.197-1.127-.314-1.6-.499-3.243-.585-4.9-.536-.763.022-1.592-.082-2.272.181-.776.298-1.59.397-2.347.683-.627.237-1.143.758-1.766 1.014-.878.364-1.56.982-2.304 1.524l-.144.106c-.017-.084-.066-.178-.044-.25.172-.543.272-1.134.56-1.608.345-.566.782-1.13 1.31-1.517a10.463 10.463 0 012.438-1.342 6.602 6.602 0 011.694-.405c.823-.078 1.62-.398 2.487-.199.066.015.293-.378.335-.602.115-.627.68-1.222 1.226-1.103.512.113.99.376 1.484.571.201.078.418.127.607.231 1.078.586 2.151 1.181 3.223 1.78.628.351 1.293.655 1.865 1.081.777.58 1.498 1.238 2.21 1.896.508.469 1.043.94 1.424 1.506.603.895 1.168 1.834 1.603 2.82.61 1.384.759 2.871.655 4.383-.048.692.22 1.252.729 1.737.659.629 1.435.917 2.315 1.107 2.297.498 4.614.179 6.919.243 2.13.058 4.262.03 6.392.007 1.773-.019 3.545-.068 5.316-.136 1.845-.069 3.69-.164 5.532-.27 1.233-.071 2.465-.176 3.696-.273.085-.007.236-.09.233-.128-.01-.139-.04-.299-.122-.406-.3-.389-.454-1.767-.114-2.073.177-.159.749-.186.869-.045.403.481.7 1.054 1.007 1.61.219.396.402.765.836 1.027.669.404 1.269.498 2.058.328 1.041-.224 1.68-.783 1.991-1.716.22-.662.517-1.431.366-2.051-.291-1.198-.978-2.283-1.892-3.136-.432-.404-1.062-.599-1.611-.872-.814-.405-1.603-.902-2.463-1.161-1.033-.311-2.152-.336-3.19-.636-.667-.193-1.349.068-2.035-.323-.428-.245-1.156.069-1.749.073-1.211.007-2.393.295-3.586.372-.96.061-1.79.591-2.794.508-.507-.041-1.048.484-1.593.704-.78.316-1.624.505-2.356.903-.825.447-1.554 1.067-2.33 1.607-.077.054-.184.067-.278.099.02-.094.035-.188.057-.28.359-1.461 1.309-2.496 2.508-3.3a29.351 29.351 0 012.931-1.705c.788-.403 1.513-.926 2.294-1.306 1.121-.548 1.887-1.474 2.802-2.235.366-.302.504-.863.8-1.268 1.154-1.582 1.61-3.398 1.742-5.298a21.46 21.46 0 00-.03-3.513c-.056-.579-.439-1.128-.677-1.69-.302-.709-.59-1.426-.92-2.123-.147-.313-.367-.595-.584-.865-.299-.374-.644-.711-.938-1.087-.565-.722-1.103-1.467-1.663-2.195-.788-1.022-1.584-2.038-2.379-3.056-.497-.637-.999-1.269-1.464-1.938.102-.125.17-.216.238-.305zm24.075-20.169c-.392-.256-.852-.449-1.165-.78a51.7 51.7 0 01-2.629-3.005c-.328-.408-.471-.96-.745-1.417-.461-.768-.982-1.5-1.433-2.273-.173-.295-.174-.689-.343-.987-.366-.646-.788-1.259-1.191-1.884-.253-.394-.495-.797-.772-1.173-.353-.478-.778-.907-1.099-1.404-.788-1.223-1.956-1.945-3.186-2.644-1.313-.746-2.686-1.031-4.17-.942-.203.012-.452-.17-.612-.102-.578.245-1.127.56-1.688.846-1.352.689-2.196 1.823-2.897 3.132-.303.564-.496 1.132-.654 1.736-.139.533-.51 1.083-.442 1.579.165 1.2-.183 2.408.16 3.598.14.485.022 1.052.192 1.52.27.744.67 1.442 1.038 2.148.414.796.74 1.674 1.307 2.345.706.833 1.566 1.568 2.46 2.203 1.072.762 2.224 1.424 3.392 2.031.58.301 1.277.375 1.916.569.438.133.86.316 1.3.44.565.157 1.143.269 1.711.414.44.113.872.266 1.315.368.502.116 1.017.17 1.517.294.291.072.553.282.844.328.438.071.895.014 1.333.079.79.118 1.55.383 2.366.395.785.011 1.546.264 2.346.277 1.164.021 2.326.212 3.491.245 3.037.084 6.071-.031 9.082-.436.526-.071 1.067-.049 1.613-.196 1.283-.346 2.628-.451 3.931-.732.802-.174 1.661-.248 2.333-.815.414-.349.862-.698.592-1.335-.177-.418-.303-.988-.635-1.188-.774-.463-1.715-.674-2.586-.787-1.371-.179-2.801.078-4.168-.114-1.142-.159-2.292.113-3.443-.309-.745-.275-1.662-.162-2.493-.102-.967.069-1.865-.099-2.805-.299-.675-.143-1.379-.342-2.035-.395-.973-.079-1.71-.578-2.551-.884-.171-.062-.287-.271-.497-.344zm7.481 48.622c-.109-.064-.213-.171-.329-.184-.532-.066-1.07-.094-1.603-.158-1.465-.174-2.926-.459-4.395-.517-2.239-.089-4.483-.026-6.725-.014-.093.001-.274.204-.264.22.149.24.28.524.499.68.51.366 1.113.61 1.591 1.008 1.077.895 1.642 2.139 2.074 3.43.155.464.073 1.003.193 1.485.077.313.31.825.497.834 1.481.08 2.971.117 4.449.027.282-.017 1.238.298 1.007-.68-.065-.276-.354-.494-.436-.771-.085-.286-.148-.654-.036-.905.221-.493.823-.432 1.124-.274.438.228.824.664 1.082 1.101.318.539.597 1.104 1.223 1.284.313.089.884.069.992-.11.163-.271.069-.732-.006-1.094-.058-.277-.249-.528-.395-.783-.262-.458.019-.8.307-1.054.321-.283.704-.291 1.064.059.195.191.482.284.728.423.026-.258.08-.518.071-.774a2.465 2.465 0 00-.132-.689c-.261-.793-.71-1.434-1.467-1.852-.374-.208-.698-.504-1.113-.692zm-10.881-60.71c-.083-.263-.231-.526-.233-.79-.006-.545-.32-.647-.755-.631-.063.003-.181.09-.175.114.171.715-.274 1.399-.241 2.009.076 1.368.008 2.822.852 4.063.427.626.77 1.307 1.169 1.952.074.12.234.187.355.278.052-.127.112-.252.156-.381.22-.656-.012-1.266-.168-1.894-.215-.873-.37-1.76-.552-2.641-.135-.648-.272-1.295-.408-2.079zm14.214-21.119c-.063.288-.148.575-.17.867-.004.064.219.214.328.205.201-.017.462-.066.576-.203.21-.251.338-.572.486-.871.046-.094.049-.21.072-.317-.329-.063-.657-.156-.988-.17-.073-.003-.157.273-.304.489z" fill="#00160A"/><path fill-rule="evenodd" clip-rule="evenodd" d="M130.324 157.581c.135.111.247.218.261.336.102.863.187 1.728.261 2.595.002.024-.213.123-.27.089-.551-.318-.951-.71-.842-1.448.018-.124-.373-.43-.588-.444-.89-.058-1.785-.039-2.678-.041-1.449-.003-2.898-.003-4.346 0-.516.001-.666-.204-.365-.646.4-.586.745-1.23 1.235-1.73 1.334-1.361 3.21-2.028 5.257-.861.711.405 1.278 1.068 1.885 1.641.107.1.085.335.19.509zm-5.917-.68c.206.157.39.389.622.455a4.33 4.33 0 001.235.167c.851-.014 1.702-.08 2.551-.143.099-.007.201-.122.276-.209.015-.018-.069-.176-.133-.199-.535-.195-1.067-.487-1.617-.529-.663-.05-1.345.098-2.014.195-.268.039-.523.173-.92.263z" fill="#00160A"/><path fill-rule="evenodd" clip-rule="evenodd" d="M99.754 117.685c1.455-1.338 3.277-1.441 4.34.37.262.448.27 1.104.232 1.653-.095 1.389-1.423 2.148-2.819 2.068-1.134-.065-1.886-.526-2.124-1.468-.207-.821-.317-1.8.371-2.623zm2.142 1.256c-.153.062-.337.092-.45.197-.097.092-.192.36-.153.393.151.13.454.32.524.265.244-.193.415-.479.614-.729-.124-.096-.247-.194-.375-.284-.006-.005-.06.058-.16.158z" fill="#ECA718"/><path fill-rule="evenodd" clip-rule="evenodd" d="M125.156 150.79c-.33-.835.044-1.484.618-2.007.185-.17.575-.146.87-.139.052.001.142.357.136.547-.026.749-.126 1.498-.118 2.246.012.994.1 1.987.152 2.98.003.058-.024.163-.051.167-.109.019-.249-.034-.334.015-.742.429-.62-.284-.71-.581-.091-.301.11-.77-.055-.955-.384-.434-.3-.924-.373-1.397-.045-.289-.047-.584-.135-.876zm-20.369-37.52c-.023-.549-.113-1.06.364-1.486.701-.626 2.041-.511 2.388.332.163.395.188.956.028 1.339-.128.31-.364.676-.974.718-.94.064-1.413-.031-1.642-.867-.003-.012-.085-.002-.164-.036zm-1.428 102.542c-.346.402-.378.428-.796-.066-.357-.421-.731-.877-.908-1.383-.158-.45.107-.928.484-1.272.368-.332.729-.251 1.073.04.103.088.267.199.267.301.003.782.573 1.591-.12 2.38zm23.973-62.034c-.025-.455.363-.807.08-1.23-.042-.062.093-.318.205-.381.073-.04.311.074.371.178.208.357.395.73.539 1.116.099.262.182.565.143.831-.031.206-.242.511-.411.539-.196.032-.485-.145-.641-.315-.155-.169-.195-.443-.286-.738zM83.534 178.87a1.08 1.08 0 01-.238.305 5.321 5.321 0 01-.404-.513c.214.059.428.116.642.208zm186.65 50.286c-.67-.136-1.307-.28-1.945-.406-1.243-.246-2.485-.447-3.585-1.178-.45-.297-1.095-.288-1.579-.551-.728-.397-1.359-.973-2.092-1.36a10.177 10.177 0 01-2.867-2.223c-.738-.826-1.589-1.559-2.02-2.647-.222-.563-.631-1.085-1.068-1.512-.199-.194-.668-.128-1.015-.147-.14-.008-.283.09-.428.106-1.651.186-3.301.385-4.955.538-.929.087-1.865.132-2.8.137-2.923.018-5.848.059-8.771-.011-1.939-.046-3.873-.239-5.816-.26-.593-.006-1.203-.015-1.775-.148-.626-.146-1.263-.003-1.858-.142-.585-.135-1.163-.02-1.728-.12-1.435-.257-2.923-.059-4.325-.426-1.299-.338-2.608-.793-3.24-2.193-.095-.213-.365-.341-.499-.543-.177-.264-.355-.548-.43-.849a10.299 10.299 0 01-.276-1.673c-.072-.954.307-1.804.794-2.584.345-.554.748-1.101 1.231-1.533.664-.595 1.459-.904 2.368-1.141.662-.172 1.39-.38 2.065-.542.76-.18 1.481-.394 2.176-.732.114-.055.219-.13.328-.195-.121-.025-.242-.071-.363-.072-.712-.003-1.51-.2-2.115.055-.931.392-1.861.192-2.777.311-1.972.258-3.971.303-5.957.449-1.03.074-2.059.153-3.084.277-.828.099-1.647.209-2.433.58-.845.4-1.555.859-1.785 1.821-.021.088.085.296.115.293.919-.103 1.118.683 1.482 1.223.505.745.931 1.544 1.434 2.292.087.131.413.208.581.155.291-.092.43-.287.3-.683-.181-.554-.201-1.161.089-1.709.249-.471.714-.532 1.167-.436.377.079.571.377.57.788-.01 1.782 1.674 2.798 3.085 2.578.587-.091.467.095.344.472-.206.627-.751.946-1.258 1.001-1.06.12-2.15.112-3.212.005a11.302 11.302 0 01-1.54-.267c-.579-.141-1.086-.582-1.666-.71-.48-.107-.907-.293-1.212-.599-.627-.631-1.316-1.175-1.689-2.094-.229-.567-.502-1.155-.574-1.728-.139-1.126.328-2.109 1.163-2.895.743-.699 1.553-1.265 2.577-1.494 1.529-.343 3.035-.749 4.637-.617.675.056 1.37-.137 2.056-.22.103-.014.205-.068.308-.071 1.218-.024 2.435-.036 3.652-.063.702-.017 1.516.154 2.071-.144.476-.256.87-.066 1.273-.201.1-.033.208-.044.314-.064-.061-.109-.101-.238-.184-.325-.387-.402-.82-.766-1.176-1.192-.699-.837-1.407-1.674-2.019-2.574a9.01 9.01 0 01-1.081-2.138c-.272-.805-.947-1.511-.709-2.464-.579-.484-.28-1.23-.538-1.81-.075-.168-.211-.356.16-.308.087.011.184-.101.283-.125.392-.098.801-.3 1.175-.25.679.094.185.674.29 1.02.54 1.795 1.126 3.56 2.161 5.154.712 1.095 1.453 2.127 2.451 3.004.844.742 1.831 1.224 2.744 1.833.371.248.921.213 1.359.385.424.167.836.397 1.203.668.504.373.977.72 1.661.686 1.499-.073 3.001-.091 4.5-.148.504-.019 1.006-.084 1.508-.134.073-.008.143-.05.215-.078-.064-.063-.116-.153-.193-.187-1.28-.573-2.243-1.551-3.104-2.597-.71-.864-1.404-1.764-1.774-2.867-.231-.688-.665-1.311-.88-2.002-.163-.531.03-1.202-.208-1.672-.454-.895-.106-1.787-.207-2.671-.045-.405.063-.831.136-1.242.011-.059.222-.134.329-.119.509.072 1.015.172 1.521.263-.03.071-.081.14-.084.212-.049 1.079-.193 2.168-.097 3.233.064.695.582 1.337.721 2.038.255 1.296 1.241 2.146 1.847 3.22.339.598.997 1.046 1.577 1.471.843.62 1.693 1.276 2.64 1.694.832.367 1.801.428 2.708.629.715.157 1.417.159 2.15.047.228-.035.649.463.793.798.2.46-.17.839-.542 1.037a3.706 3.706 0 01-1.32.41c-.927.097-1.865.113-2.798.148-1.387.053-2.774.079-4.16.143-1.596.073-3.189.193-4.784.262-1.083.046-2.178-.046-3.25.076-1.912.216-3.835.443-5.71.86-1.815.403-3.151 1.522-3.691 3.387-.218.747-.104 1.481.106 2.244.243.891 1.032 1.205 1.57 1.78.059.064.293-.034.446-.057l-.125-.277c-.339-.755-.887-1.418-.762-2.355.102-.755.669-1.549 1.417-1.668.061-.009.211.18.225.29.107.797.224 1.596.273 2.398.065 1.091.822 1.553 1.687 1.862.368.132.835.082 1.236.006.419-.082.565-.324.223-.739-.434-.526-.209-2.029.385-2.344.302-.159.781-.166 1.11-.049.479.168.464.679.393 1.101-.208 1.227-.034 1.775.974 2.23.46.208 1.035.182 1.561.219 1.459.105 2.921.155 4.376.284 3.565.315 7.14.305 10.712.246 1.898-.032 3.793-.257 5.69-.386.362-.023.727.008 1.089-.005.91-.034 1.809-.189 2.623-.584.6-.291 1.014-.753 1.033-1.541.012-.493.461-.972.479-1.466.046-1.238.644-2.262 1.184-3.287.427-.811 1.177-1.449 1.637-2.249.681-1.185 1.701-2.017 2.744-2.805a13.493 13.493 0 012.409-1.463 55.313 55.313 0 013.073-1.316c.736-.29 1.538-.407 2.281-.683a19.452 19.452 0 002.391-1.069c.483-.259.887-.664 1.33-.998.101-.076.218-.129.328-.191-.02.108-.046.217-.057.327-.096.866-.198 1.732-.264 2.601-.004.053.278.156.437.19 1.146.243 2.356.326 3.433.744 1.682.653 3.277 1.531 4.493 2.941.399.465.812.92 1.233 1.367.461.488.01.591-.303.643-.563.093-1.094-.01-1.566-.398-.677-.557-1.354-1.126-2.093-1.592-.698-.44-1.469-.766-2.221-1.116-.79-.369-1.624-.605-2.466-.84-1.5-.421-3.018-.413-4.54-.373-.836.021-1.701.066-2.489.307-.894.271-1.731.747-2.569 1.179a12.11 12.11 0 00-4.03 3.324c-.352.45-.8.83-1.125 1.297-.253.362-.378.811-.571 1.217-.37.784-.809 1.54-1.098 2.353-.179.506-.073 1.106-.199 1.64-.316 1.35.016 2.607.329 3.906.167.7.609 1.152.95 1.682.861 1.342 2.126 2.269 3.503 3.046.541.304 1.054.693 1.632.886.431.144.784.44 1.269.51.346.052.691.29 1.075.404.635.187 1.274.35 1.915.509.575.143 1.163.202 1.744.297 1.484.242 2.969.245 4.458.245.603-.002 1.292.161 1.785-.076.673-.328 1.378-.17 2.052-.425.819-.31 1.775-.239 2.63-.48.82-.231 1.571-.694 2.38-.972a18.587 18.587 0 002.169-.895c.555-.275 1.133-.503 1.676-.797 1.062-.579 2.106-1.193 3.16-1.788.571-.322 1.224-.547 1.711-.965 1.45-1.251 3.036-2.347 4.221-3.905.818-1.076 1.315-2.268 1.758-3.512.165-.462.272-.918.265-1.407-.013-1.053.019-2.107-.046-3.155-.019-.318-.352-.605-.443-.932-.659-2.366-2.321-3.875-4.315-5.107-.382-.236-.765-.502-1.187-.639-.57-.184-1.081-.5-1.679-.632-.501-.111-.953-.436-1.452-.583-.441-.13-.922-.122-1.375-.221-.368-.08-.713-.28-1.082-.329-.303-.04-.576-.042-.896-.133-.945-.27-1.991-.166-2.961-.376-.631-.136-1.291-.061-1.924-.455-.512-.319-1.285-.197-1.926-.34-.642-.142-1.327-.266-1.881-.589-.749-.436-1.561-.761-2.311-1.191a10.67 10.67 0 01-2.713-2.255c-1.211-1.393-2.118-3.054-1.981-5.071.081-1.171.053-2.355-.001-3.529a5.651 5.651 0 00-.371-1.718c-.124-.327-.474-.57-.727-.846-.072-.079-.16-.141-.24-.21.108-.067.209-.162.327-.194a36.6 36.6 0 011.845-.466c.072-.017.253.122.26.201.066.739-.051 1.54.204 2.203.208.544.227 1.079.342 1.613.211.986.361 1.986.555 2.976.225 1.143.372 2.316.747 3.407.195.565.759 1.046 1.249 1.454.551.457 1.18.842 1.825 1.158.439.218.988.207 1.445.4 1.086.457 2.247.619 3.378.896 1.041.255 2.091.466 3.141.683.924.192 1.853.359 2.777.549.607.123 1.215.251 1.815.409.654.172 1.323.324 1.944.586.91.383 1.754.933 2.678 1.276 2.067.763 3.655 2.136 4.992 3.813.56.701.998 1.517 1.384 2.332.282.591.389 1.266.608 1.903a51.024 51.024 0 010 3.226c-.095.05-.209.064-.209.081-.019.416.088.873-.053 1.237-.445 1.156-.913 2.315-1.507 3.399-.399.729-1.038 1.325-1.549 1.996-.996 1.305-2.245 2.333-3.567 3.279-.681.489-1.382.953-2.089 1.405-.408.262-.843.483-1.271.715-.153.084-.321.144-.478.227-.725.377-1.439.783-2.179 1.132-.567.268-1.174.451-1.751.697-.359.153-.683.397-1.049.523-.448.155-.938.19-1.386.346-.617.218-1.197.553-1.821.735-.587.172-1.274.084-1.808.34-.859.411-1.764.467-2.661.628-.449.082-.895.18-1.343.271h-5.135zM234.48 89.944a.43.43 0 01.034.204c1.024-.235 1.841.359 2.641.784.921.489 1.824 1.109 2.537 1.86.894.942 1.613 2.056 2.356 3.132.348.506.615 1.08.844 1.652.497 1.229 1.036 2.453 1.378 3.726.173.644.423 1.263.57 1.908.231 1.017.376 2.053.585 3.075.089.424.286.826.373 1.25.203.988.4 1.98.541 2.978.211 1.487.445 2.976.532 4.472.091 1.557.037 3.123.015 4.685-.016 1.09-.004 2.192-.154 3.268-.143 1.011-.187 2.034-.386 3.037-.174.881-.356 1.76-.544 2.639-.136.633-.253 1.273-.439 1.891a7.1 7.1 0 01-.602 1.413c-.356.634-1.139.701-1.55.113-.128-.182-.021-.562.045-.836.16-.671.382-1.328.533-2.002.117-.525.144-1.07.25-1.599.257-1.277.388-2.57.559-3.859.154-1.144.238-2.283.259-3.433.017-.932.11-1.864.123-2.796.019-1.143.109-2.303-.057-3.423-.129-.874-.495-1.708-.209-2.611-.659-1.303-.546-2.779-.906-4.156-.18-.691-.373-1.404-.507-2.122-.264-1.412-.871-2.731-1.284-4.103-.222-.736-.61-1.391-.83-2.115-.335-1.103-1.016-2.033-1.488-3.064-.491-1.078-1.419-1.78-2.133-2.659-.405-.498-1.11-.967-1.721-1.026-.632-.062-1.15-.393-1.798-.43-1.262-.074-2.396.145-3.482.733-.186.102-.341.27-.492.425-1.736 1.778-1.979 3.88-1.423 6.201.298 1.242 1.196 2.062 1.971 2.929.547.613 1.37 1.071 2.157 1.358.937.342 1.964.473 2.964.608.522.07.73.316.812.773.105.582-.415 1.009-.83.993-.745-.03-1.466-.066-2.233-.287-1.028-.295-2.038-.579-2.869-1.21-.993-.756-1.972-1.584-2.757-2.543-.499-.611-.97-1.341-1.047-2.268-.031-.359-.456-.729-.201-1.204-.564-.337-.229-.872-.243-1.3-.025-.814.305-1.56.557-2.336.392-1.213 1.009-2.213 1.915-3.056a6.135 6.135 0 011.361-.974c.54-.275 1.146-.423 1.722-.661.84-.034 1.678-.034 2.551-.034z" fill="#00160A"/><path fill-rule="evenodd" clip-rule="evenodd" d="M244.681 136.02c-.288.174-.518.423-.8.581a16.41 16.41 0 01-1.746.87c-.65.271-1.343.444-1.993.717-.579.244-1.108.609-1.689.845-.909.371-1.832.717-2.771.998-.706.212-1.455.278-2.172.46-.498.128-.96.41-1.461.507-1.409.275-2.765.746-4.246.773-.791.014-1.57.649-2.353 1.006-1.371.623-2.532 1.485-3.336 2.793-.393.642-.922 1.205-1.277 1.864-.22.408-.155.963-.349 1.393-.339.752-.21 1.526-.261 2.294-.088 1.303.174 2.548.541 3.784.043.143.041.403-.045.465-.658.472-1.34.912-2.02 1.352-.052.033-.152-.008-.23-.015.01-.061 0-.135.032-.182.745-1.079.091-2.351.487-3.477-.524-.705-.445-1.599-.468-2.351-.043-1.392-.026-2.845.794-4.127.381-.597.487-1.392.926-1.925.781-.948 1.69-1.801 2.609-2.621.399-.356.944-.563 1.446-.786.638-.284 1.284-.559 1.95-.761a50.224 50.224 0 013.506-.945c.591-.134 1.274.032 1.815-.188 1.289-.522 2.653-.701 3.978-1.043.813-.211 1.572-.532 2.332-.861.771-.335 1.55-.666 2.287-1.071.857-.47 1.693-.987 2.497-1.544.698-.481 1.332-1.053 2.004-1.572.438-.338.814-.389 1.149.189.196.335.681.549.774.888.28 1.033.412 2.106.642 3.154.141.64.387 1.258.533 1.898.158.684.238 1.387.388 2.074.04.188.239.337.311.525.132.335.219.686.332 1.029.239.731.497 1.456.722 2.192.188.614.297 1.257.523 1.856.215.569.618 1.074.793 1.65.235.78.718 1.441.87 2.281.124.689.735 1.276 1.022 1.954.487 1.149 1.153 2.214 1.622 3.358 1.044 2.543 2.481 4.885 3.627 7.374.319.694.846 1.295 1.138 1.997.428 1.026 1.147 1.854 1.736 2.764 1.248 1.93 2.759 3.639 4.604 5.039.727.551 1.386 1.199 2.147 1.695.528.345 1.202.459 1.767.757.876.459 1.813.694 2.752.975.83.248 1.533.824 1.831 1.704.269.796.234 1.57-.372 2.241-.54.599-1.142 1.013-2.003 1.057-1.738.087-3.38.519-4.996 1.229-.681.299-1.027.797-1.544 1.18-.59.436-1.058.997-1.895 1.21-.658.167-1.322.353-1.989.53-2.14.565-4.288.149-6.418.331a8.906 8.906 0 00-3.332.974c-1.067.55-2.035 1.242-3.009 1.927-.551.388-1.098.785-1.678 1.124-.747.434-1.506.862-2.299 1.203a25.77 25.77 0 01-3.028 1.112c-.596.173-1.336-.028-1.863.234-.818.406-1.613.168-2.4.175-.803.006-1.609-.244-2.413-.382.161-.169-.546-.014-.108-.287-.067-.038-.135-.112-.2-.109-1.96.064-3.667-.884-5.485-1.383-.402-.11-.784-.248-1.207-.255-.951-.015-1.902-.056-2.853-.052-.216.002-.427.173-.648.219-1.335.28-2.479.956-3.597 1.691-.945.622-2.018 1.1-3.116.952-1.216-.164-2.469-.194-3.652-.566-1.67-.526-2.153-2.073-1.865-3.371.189-.848.469-1.743 1.213-2.43.602-.554 1.027-1.328 1.426-2.062.646-1.187 1.201-2.423 1.806-3.633.348-.698.837-1.353 1.043-2.087.196-.703.399-1.378.657-2.062.238-.63.394-1.346.564-2.025.295-1.18.251-2.441.477-3.643.15-.797.194-1.676.921-2.279.343-.285 1.171-.472 1.541-.244.185.114.124.106.053.41-.12.516-.129 1.058-.233 1.58-.111.565-.285 1.116-.415 1.678-.061.271-.069.553-.125.825-.127.629-.249 1.259-.41 1.879a31.02 31.02 0 01-.683 2.321c-.275.796-.759 1.549-.886 2.362-.136.876-.478 1.579-.95 2.293-.296.449-.354 1.05-.618 1.526-.332.599-.774 1.137-1.155 1.71-.51.769-1.002 1.549-1.51 2.317-.213.322-.579.609-.636.951-.061.374.12.806.256 1.191.37 1.05 1.316 1.46 2.147 1.487.733.024 1.532.081 2.194-.165.859-.318 1.613-.917 2.409-1.402 1.936-1.176 3.984-1.782 6.264-1.271.838.187 1.693.312 2.513.559.823.248 1.596.665 2.419.909.725.216 1.512.223 2.232.45 1.695.531 3.432.427 5.151.357.723-.03 1.492-.109 2.207-.413.513-.217 1.143-.19 1.624-.452 1.116-.607 2.19-1.299 3.25-2.004.983-.653 1.889-1.433 2.901-2.034.703-.418 1.364-.891 2.224-1.133.777-.22 1.447-.758 2.327-.459.257-.553.793-.307 1.095-.228.947.247 1.884.035 2.821.094a7.438 7.438 0 002.484-.26c.729-.205 1.485-.333 2.19-.6.624-.239 1.183-.641 1.786-.94 1.002-.496 2.015-.97 3.025-1.45.899-.43 1.799-.856 2.698-1.284.521-.247 1.044-.493 1.562-.747.08-.039.144-.111.215-.168-.067-.037-.135-.106-.202-.105-.623.012-1.194-.289-1.741-.467-1.047-.341-1.999-.985-2.973-1.535-.82-.463-1.696-.877-2.403-1.482a29.463 29.463 0 01-3.017-3 40.687 40.687 0 01-2.802-3.614c-.566-.815-.895-1.793-1.449-2.618-2.107-3.149-3.515-6.66-5.266-9.991-.466-.884-.973-1.767-1.268-2.71-.225-.717-.86-1.242-.819-2.095.016-.348-.456-.697-.623-1.082-.241-.557-.404-1.148-.607-1.722a12.073 12.073 0 00-.307-.791c-.415-.966-.883-1.913-1.238-2.901-.272-.756-.374-1.572-.61-2.343-.3-.977-.693-1.927-.98-2.908-.155-.532-.114-1.122-.27-1.654-.196-.665-.505-1.297-.799-1.976zm-29.72-34.43c-.17-.77-.445-1.512-.408-2.24.052-1.038.188-2.072.756-3.042.425-.727.831-1.398 1.493-1.941.874-.72.931-.579 2.245-1.092 1.065-.416 2.027-.38 3.044-.197 1.438.26 2.704.88 3.65 2.035.144.177.227.402.338.604-.251.113-.517.342-.752.316-.564-.064-1.147-.175-1.662-.402-.736-.325-1.473-.597-2.277-.66-.529-.041-1.075-.154-1.587-.073-.553.086-1.175.24-1.588.58-.831.685-1.571 1.473-1.803 2.623-.226 1.11.035 2.043.68 2.945.298.418.707.58 1.115.807 1.154.642 2.356.436 3.583.348 1-.071 1.798-.64 2.728-.847.247-.055.626-.212.725-.109.377.384.075.692-.235.982-1.03.968-2.342 1.345-3.649 1.688-.767.202-1.582.218-2.371.344-.137.022-.239.217-.381.272-1.813.702-3.157 2.069-4.61 3.272-1.093.904-2.159 1.854-3.142 2.876-.897.935-1.673 1.99-2.487 3.003-.438.544-.903 1.079-1.253 1.678-.35.598-.571 1.271-.85 1.91-.283.65-.699 1.277-.82 1.956-.227 1.282-.302 2.593-.392 3.896-.011.157.26.417.45.483.211.072.488.008.721-.055.526-.142 1.004-.666 1.59-.32.631.373 1.574 1.906 1.404 2.802-.099.526-.784 1.224-1.252 1.261-.693.057-1.197-.648-.931-1.291.058-.141.058-.307.085-.461-.193.212-.372-.28-.67.059-.694.791-.687 1.524.238 2.07.647.382 1.342.869 2.047.925 1.283.101 2.591-.057 3.883-.162a8.1 8.1 0 001.805-.366c.407-.13.751-.445 1.144-.633 1.729-.826 3.255-1.934 4.608-3.281.389-.387.72-.834 1.11-1.22.139-.137.421-.284.557-.229.161.065.194.4.356.52.511.381.079.821.033 1.172-.053.396-.389.804-.701 1.105-.794.77-1.576 1.59-2.499 2.18-.544.348-1.016 1.027-1.86.862-.178-.035-.423.238-.623.389-.026.02.028.228.065.235.385.068.771.139 1.159.158.843.041 1.65-.042 2.463-.37.54-.219 1.203-.137 1.811-.192 1.38-.125 2.096.058 2.596 1.009.408.774.65 1.616.759 2.563.128 1.099.154 2.195.091 3.262-.064 1.101-.04 2.262-.708 3.295-.324.5-.329 1.2-.505 1.802-.03.101-.075.329-.345.088-.293-.258-.77-.301-1.09-.54-.107-.08 0-.478.046-.724.1-.525.196-1.053.342-1.567.47-1.673.17-3.382.277-5.071.033-.513-.13-.933-.338-1.371-.279-.589-.738-.703-1.353-.697-3.059.028-6.119.038-9.178 0-1.211-.015-2.455-.022-3.615-.309-.823-.203-1.667-.476-2.436-1.059-1.06-.803-1.932-1.683-2.476-2.859-.271-.588-.271-1.298-.528-1.895-.473-1.095-.349-2.23-.334-3.353.005-.468.279-.928.322-1.402.025-.269.088-.513.132-.751.137-.759.204-1.47.699-2.147.361-.492.358-1.233.653-1.79.348-.658.945-1.191 1.254-1.861.411-.894.998-1.619 1.665-2.31.68-.706 1.315-1.457 2.02-2.135a79.12 79.12 0 013.131-2.856c.914-.792 1.882-1.521 2.814-2.294.094-.078.173-.314.125-.401-.337-.6-.708-1.18-1.103-1.8z" fill="#00160A"/><path fill-rule="evenodd" clip-rule="evenodd" d="M241.417 158.633c-1.025 1.813-2.363 3.309-3.881 4.641a17.11 17.11 0 01-2.222 1.627c-.724.452-1.508.812-2.279 1.183-.563.272-1.149.499-1.727.739-.132.053-.278.075-.415.111.014-.138-.003-.288.046-.413.732-1.898.999-3.809.4-5.815-.351-1.177-1.185-1.899-2.096-2.574-.526-.389-1.08-.788-1.684-1.012-.796-.296-1.648-.445-2.485-.621-1.228-.26-2.459-.511-3.729-.418-.01.001-.052-.108-.036-.127.785-.898 1.164-2.045 1.853-3.001.416-.577.833-1.154 1.202-1.761.322-.529.551-1.114.869-1.648.23-.387.576-.707.8-1.097.359-.623.649-1.286.989-1.92.483-.901 1.03-1.762 2.037-2.153.221-.085.554-.044.769.066.279.143.416.328.102.712-.618.756-1.151 1.59-1.643 2.437-.35.602-.547 1.29-.861 1.916-.404.803-.868 1.575-1.283 2.373-.311.599-.587 1.217-.873 1.828-.099.211-.22.363-.061.67.208.403.374.02.549.056 1.204.249 2.352.581 3.32 1.396.52.437 1.123.775 1.634 1.22.404.351.759.772 1.072 1.207.374.52.732 1.064 1 1.641.258.554.323 1.2.599 1.742.384.751.294 1.527.321 2.307.002.016.132.061.169.039.271-.164.563-.307.79-.52 1.167-1.097 2.352-2.18 3.457-3.338.425-.446.667-1.07.975-1.624.313-.563.596-1.143.903-1.709.487-.9.744-1.883 1.042-2.85.228-.741.434-1.488.639-2.235.015-.054-.091-.134-.087-.198.037-.642.08-1.284.142-1.923.004-.039.225-.111.247-.085.269.325.561.642.77 1.005.687 1.193.551 2.483.317 3.75a12.193 12.193 0 01-.682 2.329c-.269.669-.684 1.28-1.028 1.919-.005.012.06.062.059.128zm-25.674 2.886c-.045 1.505-.015 2.95-.16 4.378-.109 1.063-.214 2.222-1.077 2.996-.438.394-1.072.58-1.633.827-.522.231-1.05.473-1.599.615-1.082.281-2.182.549-3.193-.236-.798.254-1.048-.527-1.42-.88-.769-.735-.589-1.559.414-2.203.431-.277.51-.59.509-1.016-.003-1.244-.132-2.507.034-3.73.186-1.377-.339-2.527-.778-3.727-.266-.726-.004-1.441.696-1.801.585-.301 1.262-.287 1.834-.479a3.347 3.347 0 011.383-.152c1.081.092 2.153.296 3.09.918.147.098.35.109.513.189.695.343.753 1.009.865 1.667.148.859.345 1.711.522 2.634zm-1.496-.475c0-.475.113-.987-.026-1.418a7.74 7.74 0 00-.97-1.963c-.118-.173-.652-.086-.995-.077-.524.014-.819.376-.725.891.147.809.424 1.571.496 2.427.063.751.325 1.542.304 2.339-.007.274-.279.582-.211.809.333 1.115-.306 2.063-.482 3.083-.107.629-.458 1.216-.688 1.826-.033.087-.001.199.001.3.501-.014 1.159.17 1.471-.08.839-.673 1.711-1.384 1.707-2.67-.002-.936.212-1.871.239-2.808.025-.839-.076-1.683-.121-2.659zm-3.672-.136c-.045-.546-.034-1.105-.15-1.636-.155-.708-.261-1.479-1.22-1.655-.324-.059-.607-.112-.779.166-.094.154-.058.415-.019.617.062.333.227.653.254.986.155 1.841.407 3.686.373 5.525-.022 1.207-.255 2.506-1.469 3.272-.049.031-.052.203-.017.282.029.064.148.115.23.12.271.012.541.006.812-.005.585-.024 1.362-.573 1.597-1.131.302-.713.547-1.437.528-2.23-.036-1.414-.049-2.829-.14-4.311z" fill="#00160A"/><path fill-rule="evenodd" clip-rule="evenodd" d="M227.849 111.403a2.005 2.005 0 00-.249-.45c-.711-.93-1.81-.93-2.784-.971-.887-.037-1.789.445-2.683.438-1.541-.014-2.969-1.286-2.953-2.928.011-1.078.579-2.004 1.673-2.477.613-.264 1.201-.578 1.808-.856.947-.435 1.926-.536 2.896-.118.306.132.562.407.802.653 1.015 1.041 2.012 2.099 3.024 3.143.234.242.348.458.842.129.532-.353 1.057-1.003 1.888-.814.155.035.352-.171.543-.227.858-.255 1.673-.043 2.214.598.68.807.948 1.699.55 2.873-.221.649-.377 1.303-.763 1.884-.464.697-1.127 1.176-1.978 1.889-.6.501-1.224.706-1.937.756-.74.052-1.363-.299-1.931-.733-.694-.529-.921-1.248-.836-2.1.021-.201-.081-.414-.126-.689zm1.7 1.63c.66.562 1.398.643 2.183.268 1.015-.485 1.559-1.372 2.049-2.316.353-.683.64-1.384.382-2.151-.086-.255-.365-.632-.559-.634-1.079-.011-1.97.509-2.729 1.228-.181.171-.187.523-.277.792-.18.538-.076 1.35-1.083 1.093-.065-.017-.284.212-.273.309.049.451.155.896.307 1.411zm-8.773-5.093c-.469.151.031.49-.136.699.11.062.22.174.332.175 1.13.014 2.26.012 3.391.005.164-.002.329-.055.494-.085-.085-.123-.2-.235-.248-.371-.101-.288-.28-.618-.214-.875.074-.287.404-.501.587-.77.164-.241.387-.512.393-.774.007-.339-.086-.888-.298-.983-.473-.211-1.069-.324-1.574-.236-.472.083-.968.4-1.311.752-.454.468-.789 1.058-1.133 1.622-.128.208-.471.361-.283.841zm7.277.203c-.117-.09-.293-.283-.343-.254-.273.152-.53.344-.757.56-.053.051.017.353.051.357.271.03.565.074.819.001.286-.082.574-.263.23-.664zm1.36 1.63c-.118-.09-.261-.275-.349-.252a.972.972 0 00-.515.335c-.051.07.105.291.168.444.109-.052.238-.081.319-.161.101-.101.162-.242.377-.366z" fill="#ECA718"/><path fill-rule="evenodd" clip-rule="evenodd" d="M196.429 163.285c0-1.781.289-2.188 1.797-2.763.361-.137.646-.472 1.005-.619a6.83 6.83 0 011.47-.41c.57-.094 1.153-.118 1.733-.144 1.273-.056 2.546-.113 3.818-.116.171 0 .438.282.498.483.329 1.086.28 1.055-.875 1.142-1.47.108-2.932.341-4.397.527-.661.084-1.347.104-1.968.312-.357.118-.687.508-.881.857-.137.25-.072.644-.014.959.153.86.922.957 1.568 1.115.816.198 1.667.25 2.488.433.692.156 1.386.215 2.086.279.501.045.978.301 1.479.375.385.055.549.313.504.57-.051.287-.277.739-.479.767-.869.128-1.76.197-2.636.151-.881-.045-1.764-.205-2.626-.402-.653-.149-1.264-.568-1.914-.629-1.179-.108-1.76-.921-2.35-1.73-.208-.285-.21-.723-.306-1.157zm19.416 5.263c-.102-.025-.238-.106-.227-.139.212-.634.416-1.275.686-1.886.077-.174.36-.375.54-.367 1.232.054 2.462.195 3.695.242.943.035 1.896.036 2.832-.061 1.091-.115 2.166-.363 3.251-.533.685-.106 1.386-.128 2.062-.27.597-.126 1.17-.372 1.756-.556.341-.107.392-.082.254.303a14.845 14.845 0 01-.824 1.898c-.088.167-.397.262-.623.308-.971.2-1.941.439-2.924.534-1.226.118-2.462.142-3.695.144-1.158 0-2.319-.075-3.477-.128-1.124-.052-2.226.014-3.306.511z" fill="#00160A"/><path fill-rule="evenodd" clip-rule="evenodd" d="M202.006 155.543c.492-.026 1.324.588 1.352 1.112a5.07 5.07 0 00.42 1.821c.019.044-.036.177-.071.183-.549.102-1.102.192-1.654.276-.056.008-.149-.02-.173-.061-.565-1.004-1.588-.6-2.404-.72-.91-.133-1.854-.032-2.783-.03-.733.002-.872.244-.538.909.189.374.35.761.55 1.129.154.282.243.517-.137.682a.285.285 0 00-.135.171c-.229.806-.441.465-.709.011-.541-.91-1.276-1.725-1.206-2.899.058-.97.945-1.899 1.798-2.376a4.913 4.913 0 012.25-.635 11.77 11.77 0 011.801.032c.55.057 1.093.214 1.639.395zm-1.633 1.291c-.084-.068-.16-.15-.253-.202-.659-.373-1.319.089-1.983.008-.154-.018-.322.097-.484.15.19.096.383.278.571.272a15.82 15.82 0 002.149-.228z" fill="#00160A"/><path fill-rule="evenodd" clip-rule="evenodd" d="M224.04 123.083c-1.025-.588-1.675-1.475-1.716-2.547-.027-.73.16-1.608.977-2.075.403-.232.752-.6 1.18-.747.664-.227 1.337-.234 2.019.151a3.2 3.2 0 011.403 1.597c.232.577.256 1.226.038 1.97-.448 1.539-2.539 2.47-3.901 1.651zm.272-2.241c.107.159.196.435.323.454.404.059.83.066 1.232.001.18-.029.437-.264.456-.43.023-.189-.17-.574-.286-.58-.536-.029-1.08.036-1.617.094-.048.006-.072.212-.108.461z" fill="#ECA718"/><path fill-rule="evenodd" clip-rule="evenodd" d="M220.776 113.848c-.6.35-1.091.839-1.676 1.014-.661.199-1.297.49-2.021.595-.54.079-1.096.095-1.638.139-.601.049-.882-.439-.493-.879.308-.348.804-.532 1.214-.79.11-.07.212-.156.328-.213.614-.302 1.213-.59 1.91-.728.548-.109 1.029-.545 1.549-.821.335-.177.675-.358 1.031-.48.422-.143.824.073.937.428.08.254-.102.649-.275.911-.205.314-.526.552-.866.824zm-21.865 37.111c.102-.637.157-1.243.245-1.843.039-.271.103-.556.234-.791.185-.335.668-.167.982.342.495.802.307 1.603.005 2.415-.292.786-.621 1.57-.795 2.384-.121.574-.382 1.026-.893 1.088-.421.052-.935-.149-1.316-.388-.646-.404-.736-1.037-.249-1.56.228-.246.491-.724.993-.346.037.028.173-.014.211-.063.234-.302.462-.609.667-.931.03-.047-.074-.18-.084-.307zm23.055 6.588c-.694.466-1.308 1.011-2.027 1.294-.565.223-1.059.667-1.803.567-.506-.068-1.067.289-1.609.43-.057.015-.207-.126-.23-.218-.071-.268-.097-.547-.147-.82-.046-.257.216-.78.439-.765 1.144.077 2.016-.647 2.989-1.033.666-.265 1.233-.21 1.858-.055.144.036.292.057.436.091.135.033.267.075.4.113-.091.121-.181.241-.306.396zm-53.013-5.535c-.133.041-.262-.091-.348.23-.136.506-.608.914-.798 1.417-.236.622-.357 1.294-.478 1.953-.102.555-.211 1.127-.174 1.683.026.397.24.806.452 1.161.206.348.424.678.748.985.59.563 1.212.599 1.9.578.628-.019 1.338.08 1.869-.173 1.156-.549 2.346-.39 3.502-.318.72.045 1.478.241 2.22.498 1.079.372 1.851.98 2.561 1.747.568.612.84 1.334 1.045 2.208.231.984-.083 1.739-.284 2.56-.125.512-.724.953-.735 1.434-.015.675-.405 1.123-.646 1.635-.627 1.335-1.632 2.366-2.875 3.196-1.238.824-2.5 1.668-3.379 2.886-.208.288-.473.775-.399 1.315.045.323-.176.777-.425 1.025-.29.288-.713.359-1.181.429-2.085.314-4.173.298-6.266.307-.642.003-1.326.141-1.919-.03-1.191-.343-2.279-.744-3.03-2.018-.642-1.089-1.839-1.897-2.899-2.685-1.222-.909-2.609-1.605-3.576-2.829-.374-.474-.785-.871-.858-1.592-.07-.695-.61-1.331-.846-2.026-.191-.561-.101-1.248-.38-1.743-.434-.771-.321-1.552-.34-2.338-.026-1.086.195-2.091.573-3.15.382-1.07.964-1.86 1.739-2.546.717-.635 1.56-1.081 2.594-1.118.589-.021 1.165-.359 1.754-.384 1.126-.047 2.257.003 3.383.058.642.032 1.154.405 1.513.906.148.208.096.559.135.845-.174.002-.348.009-.522.005-1.414-.032-2.83-.152-4.229.191-.599.146-1.225.207-1.802.409-.438.154-.819.468-1.222.717-.041.026-.056.093-.083.141.063.013.127.022.188.037 2.769.708 5.593.751 8.423.667.431-.012.909-.088 1.275-.295.478-.27.614-.696.457-1.335-.199-.803-.218-1.681-.15-2.513.087-1.064.351-2.113.515-3.173.066-.43.475-.852-.106-1.301-.64-.495-1.314-.822-2.104-.687-.204.035-.384.462-.489.74-.072.192.005.439.015.661.245-.039.499-.052.735-.122.578-.173 1.061.111 1.551.323.022.009-.094.446-.211.644-.722 1.225-3.027 1.251-3.778.016-.396-.652-.399-1.301-.177-2.131.25-.934.734-1.483 1.474-1.775.472-.186 1.102-.737 1.664-.045 1.173-.124 1.809.631 2.423 1.447.06.079.366.092.451.016.499-.454.895-1.069 1.462-1.388.673-.379 1.244-1.115 2.176-.907.488-.618 1.124-.199 1.578-.071.823.232 1.632.734 1.865 1.639.198.775.107 1.594-.61 2.155-.477.374-.95.809-1.5 1.022a4.298 4.298 0 01-1.856.265c-.422-.035-.849-.371-1.207-.656-.192-.153-.243-.483-.324-.768.29-.079.546-.124.801-.17.574-.103 1.163-.157 1.717-.327.46-.141.89-.397 1.304-.649.119-.073.222-.43.189-.453-.238-.165-.52-.401-.775-.385-.657.041-1.352-.007-1.924.453-.534.427-1.207.72-1.346 1.497zM156.1 171.163c.453.317.883.677 1.366.941.813.444 1.628.921 2.501 1.199.641.205 1.275.452 1.943.611 2.05.492 4.094.8 6.209.662.818-.055 1.631-.051 2.426-.288.873-.261 1.82-.375 2.607-.793.984-.522 1.944-1.12 2.791-1.888 1.252-1.136 2.298-2.392 2.892-3.993.227-.61.766-1.266.658-1.801-.149-.75.097-1.479-.166-2.233-.321-.921-.82-1.406-1.749-1.699-1.431-.451-2.89-.463-4.346-.477-1.252-.011-2.51.125-3.759.264-.828.092-1.66.081-2.491.222-.597.102-1.233.114-1.852.167-.838.072-1.679.136-2.52.153-1.212.024-2.428.048-3.639-.013-.796-.04-1.586-.221-2.376-.36-.78-.138-1.556-.3-2.334-.455-.163-.032-.422-.163-.465-.11-.143.177-.313.431-.287.631.247 1.881-.168 3.819.58 5.671.222.55.293 1.175.645 1.686.425.616.864 1.223 1.366 1.903zm12.853 6.043c.036-.067.071-.194.108-.195a8.98 8.98 0 002.437-.37c.391-.111.454-.293.584-.541-.225-.062-.453-.189-.671-.172-.826.062-1.647.242-2.47.242-1.128 0-2.254-.13-3.383-.189a63.716 63.716 0 00-2.098-.063c-.459-.009-.923-.028-1.378.02-.125.013-.226.251-.338.386.104.044.272.065.302.14.179.446.541.017.828.195.408.251.932.41 1.415.433 1.322.064 2.648.032 3.973.052.208.004.415.084.691.062zm-5.713 23.912c.064-.54.186-1.012.173-1.482-.009-.344-.262-.678-.286-1.024-.043-.607-.326-1.068-.7-1.506a2.804 2.804 0 01-.387-.559c-.19-.379-.071-.686.257-.945.34-.269.713-.527 1.104-.208.329.269.592.639.829.998.811 1.238.867 2.688.852 4.065-.007.749-.048 1.565-.411 2.387-.581 1.31-.524 1.778-1.41 2.783-.737.835-1.494 1.688-2.381 2.348-.892.663-1.938 1.128-2.948 1.616-.591.285-1.271.387-1.862.674-1.172.566-2.288 1.255-3.471 1.797-1.18.54-2.207 1.282-3.004 2.265-.315.39-.267 1.08-.361 1.637-.137.808.652 1.101.987 1.643.139.225.632.21.94.357.934.446 1.967.511 2.943.797.677.2 1.383.31 2.083.415 1.63.243 3.259.508 4.898.669 1.588.158 3.186.228 4.782.277 1.48.045 2.962.042 4.442-.002 1.007-.03 2.013-.144 3.014-.267 1.14-.138 2.272-.33 3.409-.493.9-.129 1.827-.161 2.699-.395 1.194-.32 2.398-.69 3.502-1.232.751-.369.501-1.6-.271-2.093-1.062-.679-2.278-.882-3.456-1.204-.659-.181-1.353-.245-2.013-.425-.646-.177-1.259-.583-1.904-.624-1.118-.073-2.027-.566-2.9-1.145-.955-.634-1.787-1.408-2.235-2.518-.192-.474-.792-2.159-.798-4.376-.005-2.338.595-5.212.798-5.712.188-.462 1.424-6.694 1.805-4.242.111.718-.583 5.533-.713 8.813-.073 1.844.39 3.058.399 3.14.064.571.356 1.114.528 1.675.311 1.017 1.057 1.65 1.937 2.138.64.356 1.294.726 1.99.93.59.174 1.254.075 1.871.174 1.23.196 2.47.369 3.669.693.903.244 1.783.631 2.421 1.404.999 1.217 1.663 2.826.801 4.078-.41.594-.875 1.086-1.695 1.185-.468.055-.879.546-1.348.616-.968.146-1.84.598-2.862.655-.629.034-1.284.418-2.03.409-.215-.003-.716.004-.849.129-.351.329-.74-.006-.932.104-.951.546-2.003.35-2.988.455-1.756.189-3.539.182-5.31.162a46.78 46.78 0 01-4.78-.282c-.919-.106-1.85-.098-2.755-.264-.74-.136-1.483-.182-2.222-.278-.627-.082-1.296-.099-1.872-.29-.651-.214-1.366.083-2.003-.451-.34-.285-1.081-.033-1.574-.21-.772-.277-1.488-.709-2.224-1.083a1.337 1.337 0 01-.369-.253c-.866-.932-1.69-1.899-1.848-3.226-.056-.469.193-.898.322-1.335.169-.576.373-1.089.768-1.483.661-.659 1.213-1.436 2.206-1.744.561-.174.983-.757 1.533-1.02.747-.357 1.581-.53 2.331-.882 1.159-.543 2.258-1.218 3.422-1.75 1.492-.683 2.676-1.777 3.862-2.843.552-.497.937-1.228 1.258-1.916.232-.497.233-1.102.337-1.726zm-14.009-14.337c1.825.136 3.588.219 5.334.44.513.065 1.018.045 1.524.102 1.796.202 3.6.269 5.407.28.729.004 1.458.111 2.188.123 3.335.057 6.672.12 10.007.132 1.84.007 3.679-.085 5.519-.125 1.034-.022 2.1.129 3.093-.077 1.679-.348 3.378-.264 5.06-.448.894-.098 1.79-.23 2.685-.269.908-.04 1.796-.235 2.688-.262.933-.03 1.831-.272 2.753-.299.945-.027 1.859-.22 2.782-.395.594-.113 1.222-.028 1.828-.097.574-.065 1.134-.238 1.708-.32.501-.074.809.195.872.683.065.505-.329.908-.816 1.009-.561.117-1.097.357-1.658.463-.728.136-1.472.187-2.209.284-1.375.178-2.75.369-4.127.538-.89.108-1.782.201-2.675.271-1.344.106-2.691.174-4.035.279-1.58.123-3.159.269-4.739.403-.068.007-.136 0-.204.001-1.681.045-3.362.108-5.043.132-3.835.057-7.669.112-11.503.132-1.432.007-2.865-.067-4.296-.132-1.595-.073-3.195-.121-4.781-.293-.692-.075-1.392-.003-2.063-.128-1.051-.197-2.119-.104-3.165-.261-1.943-.29-3.917-.3-5.852-.664-.541-.102-1.108-.064-1.653-.151-1.673-.266-3.369-.376-5.03-.696-.581-.112-1.165-.132-1.741-.243-.782-.152-1.573-.267-2.357-.415-.905-.171-1.822-.308-2.706-.556-.659-.187-1.253-.609-1.914-.776-.953-.24-1.853-.606-2.546-1.259-.659-.621-1.42-1.138-1.822-2.083-.206-.487-.575-1-.721-1.532-.189-.688-.239-1.425-.256-2.142-.009-.371.177-.749.286-1.119.114-.39.528-.434.829-.041.215.281.374.622.488.96.143.427.225.876.314 1.319.236 1.186.966 2.085 1.748 2.938.199.217.551.292.824.446.551.314 1.067.712 1.651.939.618.238 1.304.292 1.948.473.506.141.98.41 1.49.514.565.116 1.161.072 1.732.166.791.129 1.609.06 2.364.498.312.181.821-.009 1.231.045.717.095 1.439.185 2.15.298.648.102 1.31.084 1.943.243 1.138.285 2.327.182 3.452.436.654.146 1.332-.082 2.014.236zm35.228-4.889c-.85-.091-1.633-.174-2.414-.283-.084-.011-.222-.172-.21-.243.037-.225.069-.55.218-.637.433-.254.914-.549 1.392-.578a80.206 80.206 0 015.19-.151c2.066.004 4.134.081 6.2.126 1.492.031 2.992.178 4.471.056 1.316-.107 2.608-.504 3.907-.792.663-.147 1.333-.285 1.966-.521.381-.143.709-.451 1.028-.722.068-.057.059-.342-.016-.407-.404-.356-.814-.717-1.269-1.001-1.239-.776-2.708-.839-4.074-1.207-1.549-.419-3.149-.651-4.722-.977-.787-.163-1.576-.3-2.369-.429a81.237 81.237 0 00-3.801-.519c-.78-.091-1.564-.141-2.334-.281-1.095-.198-2.196-.231-3.301-.27-1.573-.059-3.144-.186-4.716-.254-.388-.018-.778.082-1.169.123-.062.007-.127-.015-.191-.024.035-.064.057-.147.111-.189.38-.299.767-.589 1.151-.884.018-.014.041-.029.047-.048.55-1.553 1.81-.44 2.702-.705.166-.049.377.076.568.083 1.477.052 2.956.06 4.432.152.896.056 1.799.158 2.682.291 1.59.24 3.198.352 4.778.651 1.137.214 2.271.445 3.404.677.61.127 1.226.238 1.824.415.628.186 1.225.484 1.856.654.65.174 1.337.211 1.989.383.817.219 1.635.463 2.414.788.85.353 1.579.974 1.755 1.881.196 1.006-.072 1.946-.889 2.734-1.173 1.137-2.578 1.589-4.143 1.696-.963.067-1.973-.068-2.879.185-.99.278-1.961.341-2.96.363-2.093.044-4.186.122-6.28.126-1.726.003-3.453-.075-5.179-.132-.368-.011-.733-.085-1.169-.13z" fill="#00160A"/><path fill-rule="evenodd" clip-rule="evenodd" d="M149.265 170.042c.513-.012.993-.09 1.473-.092.411-.003.829.055 1.232.139.148.032.286.199.388.333.284.372.569.747.802 1.152.063.109.287.451-.236.417-1.909-.125-3.82-.237-5.733-.275-2.272-.046-4.547-.012-6.82-.01-.736.001-1.573-.207-2.18.076-.692.322-1.367.197-2.02.284-1.401.184-2.803.358-4.2.579-.504.081-1.034-.009-1.542.059-.512.068-1.01.242-1.517.358-.622.143-1.249.267-1.868.417-.086.021-.221.203-.204.23.399.648.678 1.581 1.263 1.854.82.381 1.649.921 2.662.922.692 0 1.386.234 2.073.386.519.115 1.081.175 1.531.425.67.372 1.263.883 1.875 1.352.092.071.106.244.156.369-.137.053-.272.148-.41.152-.657.015-1.331.099-1.968-.013-1.473-.258-2.98-.472-4.374-.977-1.067-.387-2.242-.708-3.053-1.675-.336-.402-.915-.589-1.311-.953-.839-.768-.738-2.305.186-3.002.787-.593 1.671-1.024 2.623-1.232.871-.191 1.782-.193 2.664-.343.632-.108 1.236-.382 1.869-.477.93-.14 1.903-.076 2.803-.311.549-.143 1.135.121 1.63-.241.044-.032.133-.002.2-.005.865-.045 1.73-.109 2.595-.132 1.998-.057 3.996-.118 5.994-.13 1.069-.007 2.138.077 3.206.134.062.004.118.128.211.23z" fill="#00160A"/><path fill-rule="evenodd" clip-rule="evenodd" d="M140.934 172.656c.642.383 1.368-.139 1.967.358.248.205.733.106 1.097.198.831.208 1.21 1.615.606 2.229-1.61 1.636-3.598 2.288-5.846 2.08-.711-.065-1.382-.499-2.096-.619-1.164-.195-2.028-.842-2.825-1.627-.507-.498-.292-1.373.505-1.787a5.405 5.405 0 011.67-.541c.682-.1 1.387-.037 2.08-.077.925-.055 1.849-.14 2.842-.214zm1.292 1.495c-.632-.182-1.296-.045-1.922-.154-1.417-.247-2.802-.004-4.19.17-.356.045-.686.3-1.028.458.136.188.244.41.417.552.103.084.311.033.468.064 1.971.395 3.942.458 5.911-.007a24.392 24.392 0 001.527-.413c.123-.036.217-.165.324-.252-.142-.049-.283-.099-.426-.147-.337-.114-.675-.227-1.081-.271zm52.001.009c.642.383 1.368-.14 1.967.357.249.205.733.106 1.098.198.831.208 1.209 1.615.606 2.229-1.611 1.637-3.598 2.288-5.847 2.081-.711-.066-1.382-.5-2.095-.62-1.165-.195-2.029-.842-2.826-1.627-.506-.498-.292-1.373.505-1.787a5.41 5.41 0 011.671-.541c.681-.1 1.386-.036 2.079-.077.926-.054 1.849-.14 2.842-.213zm1.292 1.494c-.632-.182-1.295-.045-1.922-.154-1.417-.247-2.801-.004-4.19.17-.356.045-.686.3-1.028.458.136.188.244.41.418.552.103.085.311.033.467.064 1.971.395 3.942.458 5.911-.007.513-.12 1.023-.259 1.527-.412.123-.037.217-.166.325-.253l-.426-.147c-.338-.114-.676-.227-1.082-.271z" fill="#ECA718"/><path d="M43.452 128.214a.5.5 0 10-.904-.428l.904.428zM38.5 137.5l-.452-.214a.5.5 0 00.676.661l-.224-.447zm9-4.5l.224.447a.5.5 0 00-.224-.947v.5zM36 133v-.5a.5.5 0 00-.214.952L36 133zm9.5 4.5l-.214.452a.5.5 0 00.686-.617l-.472.165zm-2.974-8.5l-.452-.214.452.214zm-2.743 5.792l.452.214a.5.5 0 00-.238-.666l-.214.452zm.849-1.792v.5a.5.5 0 00.451-.286l-.451-.214zm3.294 0l-.472.165a.5.5 0 00.472.335v-.5zm.532 1.521l-.224-.447a.5.5 0 00-.248.612l.472-.165zm-2.553 1.276l.214-.452a.502.502 0 00-.437.005l.223.447zm.643-8.011l-.474 1 .904.428.474-1-.904-.428zm-3.217 6.792l-.83 1.75-.323.684-.095.201-.026.054-.007.014-.001.004v.001l.451.214.452.214v-.001l.002-.004.007-.014.025-.054.096-.201.323-.683.83-1.751-.904-.428zM36 133l-.214.452.002.001.005.002.02.009.075.036.281.133.954.452 2.446 1.159.428-.904a4442.103 4442.103 0 00-3.4-1.61l-.281-.134-.076-.035-.02-.01-.004-.002-.002-.001L36 133zm6.074-4.214l-1.894 4 .903.428 1.895-4-.904-.428zm-1.442 3.714H36v1h4.632v-1zm6.868 0h-3.574v1H47.5v-1zm-3.102.335l-1.4-4-.944.33 1.4 4 .944-.33zm1.574 4.5l-1.042-2.979-.944.33 1.042 2.979.944-.33zm-1.29-2.367l3.042-1.521-.448-.894-3.042 1.521.447.894zm-5.958 2.979l3.405-1.702-.447-.895-3.406 1.703.448.894zm2.967-1.698l3.595 1.703.428-.904-3.595-1.703-.428.904z" fill="#B0E9AF"/></svg>