<svg width="312" height="312" fill="none" xmlns="http://www.w3.org/2000/svg"><path fill-rule="evenodd" clip-rule="evenodd" d="M223.011 23.642c-55.618-9.12-49.948 82.178-123.952 69.682C23.365 80.542.742 170.707 23.365 220.51c24.435 53.791 180.895 82.708 236.87 43.055 62.999-44.629 67.13-222.81-37.224-239.923z" fill="#D9E8FF"/><path fill-rule="evenodd" clip-rule="evenodd" d="M106.698 125.282s5.609 12.23 10.481 17.9c6.913 8.045 16.786 14.729 20.493 21.004 8.809 14.911 4.901 22.204 4.901 22.204s-4.653-16.073-11.323-23.924c-5.091-5.991-15.09-12.637-18.433-17.557-6.02-8.864-9.131-17.356-9.131-17.356l3.012-2.271z" fill="#fff"/><path d="M175.949 255.458a2264.34 2264.34 0 00-68.937 4.274c-2.944.291-5.121.334-5.005.647-2.07-.132-5.811-1.258-7.986-.356 1.638.38 4.735 1.828 4.92 3.499a338.22 338.22 0 01-64.948-2.513 707.59 707.59 0 0063.266 1.475c-2.719-1.824-6.215-2.445-9.396-1.669a21.278 21.278 0 0113.317-1.694 26.457 26.457 0 01-6.409-13.696 22.002 22.002 0 017.751 9.43c-.156-7.124 4.886-14.046 11.714-16.084-4.361 5.553-6.666 12.685-6.38 19.74 21.8-1.863 43.647-3.165 65.514-3.906a5.509 5.509 0 01-2.007-3.5c1.069-.912 2.648-1.181 3.959-.673.962-7.616 6.26-14.533 13.364-17.444a34.187 34.187 0 00-7.88 15.848 5.05 5.05 0 014.122-.478 7.53 7.53 0 01-2.694 4.196c27.075-6.188 55.497 4.355 83 .488-13.883 4.49-28.885 1.009-43.398-.501-21.245-2.109-41.65 2.064-45.887 2.917zm57.29-164.688c.238-2.266 2.19-3.965 4.19-5.055a19.463 19.463 0 0111.96-2.16c1.847.263 3.256-1.497 4.576-2.816 3.426-3.423 8.662-4.673 13.44-3.882 4.778.79 9.108 3.43 12.595 6.791s6.209 7.428 8.729 11.565c.528.867 1.754.89 2.769.84 2.189-.107 4.493-.046 6.406 1.025 1.913 1.07 3.257 3.448 2.483 5.499-.362.961-1.132 1.726-2.011 2.256-1.754 1.058-3.881 1.24-5.923 1.396l-40.853 3.119c-3.726.285-7.511.566-11.17-.192s-7.241-2.708-9.115-5.942c-1.873-3.233-1.56-7.84 1.314-10.228.607-.505.528-1.431.61-2.216m-45.581 20.864c2.972 3.414 18.314 2.219 18.811 8.465l-5.273 1.446c-2.857.784-5.747 1.581-8.332 3.029-1.214.68-2.656 1.52-3.89.879-4.771-2.48-10.319-3.25-15.671-2.738-5.352.511-10.529 2.255-15.386 4.561-2.536 1.204-5.394 2.594-8.018 1.599-9.583-3.633-20.514-3.57-30.054.175-1.691.664-3.577-.073-5.241-.801l-5.401-2.364c2.322-2.655 12.248-6.35 14.271-8.92.356-.451 13.61-9.642 28.143-5.49.652-.305 23.256-4.152 36.041.159z" fill="#fff"/><path fill-rule="evenodd" clip-rule="evenodd" d="M128.251 155.039c-8.427-8.01-18.157-16.119-20.426-27.522 4.165 10.698 13.414 18.399 21.526 26.522 8.113 8.123 15.796 18.255 15.295 29.724a123.24 123.24 0 0140.494-2c1.382-6.225 5.405-11.466 8.563-17.006 7.826-13.735 10.472-29.724 12.987-45.33.636-3.946-4.195-6.285-8.068-7.272l-11.604-2.957c-7.27-1.852-14.801-3.717-22.195-2.451-5 .857-9.938 3.135-14.939 2.282-7.959-1.358-16.404.362-23.199 4.724-3.416 2.193-6.452 5.035-10.181 6.64a48.16 48.16 0 00-19.788 15.806c-2.627-13.587 1.799-27.492 6.973-40.327 5.783-14.348 13.044-28.865 25.488-38.055 18.245-13.474 42.032-10.852 61.011 1.567 18.979 12.418 30.576 32.897 34.324 55.266.436 2.602.745 5.418-.48 7.754-1.225 2.336-1.687 3.688-3.684 1.965-1.703-1.47-3.515-2.993-5.723-3.416-2.209-.423-4.889.724-5.317 2.932-3.136 16.169-6.43 32.748-15.143 46.724-2.269 3.64-4.912 7.115-6.355 11.154-1.104 3.09-1.46 6.39-1.808 9.653l-2.175 20.4c-.305 2.866-.731 5.987-2.819 7.974-1.994 1.898-4.961 2.239-7.703 2.483l-26.712 2.372c-1.592.141-3.398.214-4.561-.883-.896-.845-1.144-2.154-1.32-3.373a91.418 91.418 0 01.001-26.133c1.795-12.412-3.759-25.11-12.508-34.096-4.559-4.682-9.936-8.51-14.488-13.2-4.552-4.69-8.362-10.584-8.635-17.114 3.098 8.582 8.805 16.203 16.17 21.589 11.006 8.049 18.848 20.311 21.537 33.679 2.114-11.433-6.11-22.066-14.538-30.075z" fill="#fff"/><path fill-rule="evenodd" clip-rule="evenodd" d="M187.549 160.963c-.501-.431-.277-1.235-.037-1.85a25.128 25.128 0 001.536-6.161c.082-.698.213-1.521.843-1.834.297.268.253.738.184 1.132-.522 2.993-1.066 6.049-2.526 8.713zm-82.072 20.2c-1.336-.733-1.828-2.375-2.179-3.857a176.164 176.164 0 01-3.768-22.083c-.05-.473-.073-1.018.27-1.346.737.868.867 2.081.98 3.214a131.833 131.833 0 004.697 24.072zm105.908-24.77a80.844 80.844 0 002.667-12.377c.076-.567.289-1.28.86-1.324.333.291.301.809.238 1.247a92.212 92.212 0 01-2.292 11.073c-.2.739-.762 1.666-1.473 1.381z" fill="#ECA718"/><path fill-rule="evenodd" clip-rule="evenodd" d="M180.54 253.693a9.67 9.67 0 013.424-4.491 6.967 6.967 0 00-4.433 1.984 40.497 40.497 0 014.756-14.5c-4.597 3.773-7.564 9.468-8.022 15.398a4.64 4.64 0 00-3.671-.414l3.355 3.788a2264.34 2264.34 0 00-68.937 4.274c-1.193-6.344.359-13.156 4.182-18.357-5.045 3.558-8.16 9.7-8.049 15.873-2.25-3.001-3.37-7.287-6.749-9.002.598 2.94 1.288 3.602 5.257 11.198.162.31.238.622.354.935-2.07-.132-5.811-1.258-7.986-.356 1.638.38 4.735 1.828 4.92 3.499a338.22 338.22 0 01-64.948-2.513 707.59 707.59 0 0063.266 1.475c-2.719-1.824-6.215-2.445-9.396-1.669a21.278 21.278 0 0113.317-1.694 26.457 26.457 0 01-6.409-13.696 22.002 22.002 0 017.751 9.43c-.156-7.124 4.886-14.046 11.714-16.084-4.361 5.553-6.666 12.685-6.38 19.74 21.8-1.863 43.647-3.165 65.514-3.906a5.509 5.509 0 01-2.007-3.5c1.069-.912 2.648-1.181 3.959-.673.962-7.616 6.26-14.533 13.364-17.444a34.187 34.187 0 00-7.88 15.848 5.05 5.05 0 014.122-.478 7.53 7.53 0 01-2.694 4.196c27.075-6.188 55.497 4.355 83 .488-13.883 4.49-28.885 1.009-43.398-.501a157.642 157.642 0 00-41.296 1.152z" fill="#00160A"/><path fill-rule="evenodd" clip-rule="evenodd" d="M192.731 154.695c.332.489.228 1.141.094 1.716a30.318 30.318 0 01-4.165 9.725c-.541-.675-.044-1.651.412-2.386a21.265 21.265 0 002.624-6.349c.221-.95.4-1.965 1.035-2.706zm-46.809 17.425c.146-.131.375.004.51.146.61.638.973 1.506 1 2.387a3.129 3.129 0 01-1.576-2.169c-.023-.127-.03-.277.066-.364zm64.135-26.733a34.001 34.001 0 01-2.583 11.2.65.65 0 01-.156.252c-.221.191-.593-.014-.673-.295-.079-.281.034-.576.141-.847a32.469 32.469 0 002.066-8.294c.095-.844.361-1.917 1.205-2.016zm-65.555 20.105a25.144 25.144 0 01-3.404-6.334c-.106-.29-.041-.78.257-.7.113.03.179.143.234.245l3.726 6.947c-.063.348-.603.126-.813-.158z" fill="#ECA718"/><path fill-rule="evenodd" clip-rule="evenodd" d="M103.78 125.31c-.657-.341-.683-1.257-.604-1.993 1.47-13.716 8.147-26.81 18.387-36.054.235 1.74-1.108 3.247-2.299 4.537-8.484 9.191-13.984 21.093-15.484 33.51zm86.074-.014c.187-4.504-.566-9.46-2.196-13.662 2.972 3.414 3.095 8.382 3.064 12.909a31.811 31.811 0 0115.747-4.444l-5.273 1.446c-2.857.784-5.747 1.581-8.332 3.029-1.214.68-2.656 1.52-3.89.879-4.771-2.48-10.319-3.25-15.671-2.738-5.352.511-10.529 2.671-15.386 4.977-2.536 1.204-5.394 2.594-8.018 1.599-9.583-3.633-20.514-3.986-30.054-.241-1.691.664-3.577-.073-5.241-.801l-5.401-2.364c2.093.44 7.29 2.309 7.29 2.309s1.497.181 1.968-.394c.471-.575.62-1.339.79-2.063a22.577 22.577 0 014.223-8.772c.356-.451 1.117-.873 1.4-.373a23.197 23.197 0 00-5.324 11.525c10.208-3.85 21.855-3.728 31.98.334a51.53 51.53 0 00.087-16.976c.652-.305 1.13.665 1.194 1.382a74.787 74.787 0 01-.25 15.687c5.856-2.828 11.928-5.384 18.349-6.416 6.42-1.031 13.274-.016 18.944 3.168zm-74.423-11.182a72.332 72.332 0 0113.967-23.883c.45-.51.984-1.052 1.664-1.075.68-.023 1.319.865.839 1.348a70.073 70.073 0 00-16.019 25.119c-.622.016-.656-.922-.451-1.509z" fill="#00160A"/><path fill-rule="evenodd" clip-rule="evenodd" d="M105.76 153.562c.089.109.1.26.107.401.294 5.835 1.776 11.536 3.251 17.188.063.241-.289.416-.51.3-.221-.115-.318-.374-.395-.611a71.466 71.466 0 01-3.264-16.344c-.023-.276-.038-.575.109-.81.147-.235.526-.339.702-.124z" fill="#ECA718"/><path fill-rule="evenodd" clip-rule="evenodd" d="M151.849 106.185c-.614.026-.815-.809-.806-1.424l.279-19.277c.01-.71.203-1.633.908-1.712.627.735.613 1.803.567 2.767l-.948 19.646zm59.165 9.834c1.362-2.21 1.27-4.992 1.041-7.578a107.743 107.743 0 00-2.063-13.477c-.093-.426-.149-.962.21-1.21.296-.205.729-.064.961.212.232.275.314.644.385.997a77.295 77.295 0 011.51 16.802c-.041 2.095-.384 4.552-2.223 5.556-.354-.322-.071-.894.179-1.302zm-21.566-14.887a10.255 10.255 0 01-.553 6.191c-.562-.604-.404-1.552-.307-2.371.378-3.183-.736-6.353-2.107-9.25-1.371-2.898-3.027-5.696-3.851-8.794-.123-.466-.104-1.14.371-1.223.401-.07.675.384.824.763l4.621 11.706c.385.975.771 1.955 1.002 2.978zm41.711-11.61c.238-2.266 2.189-3.965 4.19-5.055a19.463 19.463 0 0111.96-2.16c1.847.264 3.256-1.497 4.576-2.816 3.426-3.423 8.662-4.673 13.44-3.882 4.778.79 9.108 3.43 12.595 6.791s6.209 7.428 8.729 11.565c.528.867 1.754.89 2.768.84 2.19-.107 4.494-.046 6.407 1.025 1.913 1.07 3.257 3.448 2.483 5.499-.362.961-1.132 1.727-2.011 2.257-1.754 1.057-3.881 1.239-5.923 1.395L249.52 108.1c-3.726.285-7.511.566-11.17-.192s-7.241-2.708-9.115-5.942c-1.873-3.233-1.56-7.839 1.314-10.228.607-.504.528-1.431.61-2.216m5.159-4.352c-1.63.777-3.257 1.92-3.794 3.645-.191.614-.231 1.267-.409 1.885-.46 1.603-1.787 2.807-2.487 4.322-1.459 3.156.204 7.082 2.986 9.17 2.782 2.087 6.385 2.707 9.855 2.951 12.486.88 24.902-2.289 37.416-2.604 4.915-.123 9.986.169 14.584-1.572 1.741-.659 3.653-2.326 2.906-4.03-.189-.431-.529-.777-.885-1.083-2.201-1.894-5.354-2.618-8.161-1.875-1.431.379-2.626-1.073-3.41-2.33-3.41-5.465-7.272-10.913-12.781-14.252-5.509-3.34-13.064-4.07-18.188-.166-2.303 1.754-4.445 4.48-7.324 4.175a19.36 19.36 0 00-10.308 1.764zM45.616 69.156c-.46 1.434.12 2.978.748 4.346.73 1.592 1.929 3.386 3.676 3.276l16.183-1.022c.782-.05 1.857.154 1.862.937L47.79 78.318c-4.55.364-9.309.796-13.15 3.26-3.843 2.465-6.347 7.663-4.275 11.73.785 1.541 2.327 2.83 4.055 2.778l13.98-.416c1.085-.033 2.57.31 2.522 1.395a112.507 112.507 0 00-22.2.873c-2.638.367-5.351.862-7.563 2.345-2.212 1.483-3.801 4.206-3.182 6.796.427 1.788 1.828 3.224 3.447 4.093 1.62.87 3.453 1.247 5.265 1.551 19.224 3.228 38.945-.547 58.387.863 2.175.157 4.53.463 6.08 1.998-16.774-3.22-34.071.373-51.131-.434-3.797-.18-7.58-.578-11.361-.975-3.095-.326-6.337-.705-8.89-2.484-1.228-.856-2.258-2.038-2.772-3.445-1.272-3.483.974-7.463 4.139-9.396 3.165-1.933 7.006-2.316 10.7-2.652-3.02-2.066-3.917-6.417-2.61-9.834 1.305-3.417 4.412-5.908 7.817-7.245 3.405-1.337 7.114-1.66 10.768-1.832-1.077-1.412-2.171-2.852-2.773-4.522-.603-1.67-.647-3.638.314-5.131.668-1.039 1.74-1.742 2.81-2.359 10.231-5.903 22.6-6.589 34.408-6.296 3.21.08 6.523.246 9.408 1.651 4.477 2.18 7.198 7.221 7.225 12.2.028 4.98-2.382 9.785-5.923 13.285-.569-.788.142-1.835.765-2.58 2.885-3.454 4.524-8.059 3.91-12.516-.613-4.458-3.672-8.628-7.935-10.066-1.782-.602-3.684-.729-5.562-.824-12.21-.622-25.008.017-35.703 5.943-1.316.73-2.685 1.65-3.144 3.084z" fill="#00160A"/><path fill-rule="evenodd" clip-rule="evenodd" d="M128.251 155.038c-8.427-8.009-18.157-16.118-20.426-27.521 4.165 10.698 13.414 18.399 21.526 26.522 8.113 8.123 15.796 18.255 15.295 29.724a123.24 123.24 0 0140.494-2c1.382-6.225 5.406-11.466 8.563-17.006 7.826-13.735 10.472-29.724 12.987-45.33.636-3.946-4.195-6.285-8.068-7.272l-11.604-2.957c-7.27-1.852-14.801-3.717-22.195-2.451-5 .857-9.938 3.135-14.939 2.282-7.959-1.358-16.404.362-23.199 4.724-3.416 2.193-6.421 5.173-10.181 6.64-8.142 3.176-12.818 7.023-19.788 15.806-2.627-13.587 1.799-27.492 6.973-40.327 5.783-14.348 13.044-28.865 25.488-38.055 18.245-13.474 44.944-12.1 63.923.319 18.979 12.418 30.576 34.145 34.324 56.514.436 2.602.745 5.418-.48 7.754-1.225 2.336-4.599 3.688-6.596 1.965-1.703-1.47-3.515-2.994-5.723-3.417-2.209-.423-4.889.725-5.317 2.933-3.136 16.169-6.43 32.748-15.143 46.724-2.269 3.64-4.912 7.115-6.355 11.154-1.104 3.09-1.46 6.39-1.808 9.653l-2.175 20.4c-.305 2.866-.731 5.987-2.819 7.974-1.994 1.898-4.961 2.239-7.703 2.483l-26.712 2.372c-1.592.141-3.398.214-4.561-.883-.896-.845-1.144-2.154-1.32-3.373a91.454 91.454 0 01.001-26.133c1.795-12.412-3.759-25.11-12.508-34.096-4.559-4.682-9.936-8.51-14.488-13.2-4.552-4.69-8.362-10.584-8.635-17.114 3.098 8.582 8.805 16.203 16.17 21.589 11.006 8.049 18.848 20.311 21.537 33.679 2.114-11.433-6.11-22.066-14.538-30.076zm18.902-47.587c3.581.35 7.331 1.24 10.673-.093 9-3.589 19.439-3.399 28.302.515 3.783 1.671 8.041 1.763 12.114 2.476 4.073.712 8.373 2.338 10.447 5.915 2.329 4.017 9.173 2.907 11.825 6.719 1.1 1.58 3.806.978 4.847-.642 1.041-1.62.901-3.705.668-5.616-1.895-15.56-7.593-30.816-17.427-43.022-9.834-12.207-23.941-21.183-39.418-23.664-15.477-2.482-32.177 1.905-43.632 12.604-6.933 6.476-11.742 14.878-15.968 23.372-7.359 14.794-13.383 30.946-12.195 47.427 4.94-5.977 10.306-12.248 17.714-14.537 1.769-.546 3.707-.897 5.05-2.172 7.117-6.759 17.232-10.236 27-9.282zm7.916 101.973a38.42 38.42 0 001.758 11.742c.101.323.227.672.514.851.28.174.637.141.964.102l11.945-1.428c.146-.018.309-.045.396-.163.091-.123.063-.293.031-.442l-2.15-10.105c-.04-.189-.086-.389-.22-.53-.164-.172-.419-.212-.655-.242a74.724 74.724 0 00-11.802-.551c-.231.008-.489.029-.64.203-.13.149-.139.365-.141.563zm12.636-14.039c-.131-.179-.379-.215-.6-.235a58.923 58.923 0 00-12.067.174c-.232.027-.478.061-.657.211-.294.244-.296.687-.274 1.069l.401 6.801c.032.554.248 1.285.802 1.257a68.058 68.058 0 0111.768.43c.537.066.744-.675.743-1.215l-.014-8.016c0-.165-.004-.343-.102-.476zm-24.884 15.404c-.303.137-.613.291-.819.553-.327.417-.313.998-.283 1.526l.308 5.568c.052.939.107 1.893.426 2.778.318.885.943 1.707 1.825 2.034.726.27 1.53.179 2.299.085l4.367-.536c.598-.074 1.217-.155 1.728-.472a59.565 59.565 0 01-2.698-12.779c-.03-.304-.439-.375-.743-.356-2.21.139-4.394.684-6.41 1.599zm39.164-4.969l1.293-7.991c.037-.234.069-.495-.068-.687-.139-.195-.401-.249-.638-.287a306.478 306.478 0 00-9.489-1.372c-.238-.031-.527-.04-.664.157-.082.117-.079.272-.073.415l.344 8.33c.01.254.034.537.224.706.134.119.321.152.498.18l7.983 1.29c.348.056.533-.393.59-.741zm-27.663-15.713c-.057.306-.077.699.197.85.131.072.29.06.439.046l12.518-1.203c.215-.02.443-.046.616-.175.236-.175.309-.492.365-.781l1.02-5.28c.048-.25.078-.555-.121-.714-.139-.112-.335-.102-.513-.087l-12 1.004c-.327.027-.668.059-.944.236-.468.298-.609.905-.711 1.45l-.866 4.654zm18.8-5.789l-.469 4.577c-.026.252-.048.521.074.742.181.327.598.422.966.483l10.044 1.692c.139.024.287.046.417-.009.246-.106.301-.426.319-.693.133-1.969.163-3.945.09-5.918-.013-.339-.031-.688-.169-.999-.42-.942-1.669-1.099-2.7-1.12l-7.251-.147c-.251-.005-.514-.008-.735.108-.436.228-.536.796-.586 1.284zm35.644-64.899c-1.728 2.252-2.202 5.193-2.64 7.997-2.22 14.187-5.098 28.702-12.905 40.754-2.674 4.129-6.007 8.205-6.385 13.11 1.473-5.106 5.551-8.97 8.35-13.487 2.054-3.314 3.425-7 4.68-10.691a213.29 213.29 0 007.298-27.253c.657-3.32 1.305-6.811 3.442-9.434a2.28 2.28 0 01-1.84-.996zm-59.902 85.772c.232-.06.48-.131.631-.318.162-.199.169-.479.169-.736l-.009-7.345c0-.176-.006-.368-.117-.504-.161-.196-.457-.189-.709-.161a33.611 33.611 0 00-5.743 1.141c-.22.064-.451.137-.607.305-.18.193-.226.471-.262.732a48.555 48.555 0 00-.435 7.984c.007.218.038.476.231.576.134.069.296.032.441-.006l6.41-1.668zm31.29 13.189c1.415-1.701 1.427-4.128 1.369-6.339-.011-.431-.518-.644-.936-.747a53.795 53.795 0 00-6.795-1.219c-.2-.022-.42-.04-.586.073-.255.173-.253.543-.22.849.31 2.855.903 5.68 1.768 8.419.1.318.232.668.533.811.163.077.349.079.529.074 1.629-.047 3.296-.668 4.338-1.921zm-34.186-32.932c-.555.16-1.122.347-1.56.725-.415.359-.679.861-.885 1.37-.653 1.617-.802 3.386-.943 5.124-.011.133-.018.279.063.385.122.159.362.137.559.101l5.08-.953c.482-.09 1.016-.213 1.29-.62.186-.277.209-.629.226-.962l.311-6.002a25.85 25.85 0 00-4.141.832zm9.507 8.567a58.917 58.917 0 0111.142-.147c.42.034.882.062 1.223-.187.533-.39.461-1.193.334-1.841-.034-.17-.072-.349-.19-.474-.189-.2-.504-.192-.778-.169l-11.103.931c-.511.043-1.056.099-1.452.424-.397.325-.525 1.021-.117 1.33.259.196.618.168.941.133zm28.177-.294c-.444-.455-1.114-.588-1.74-.7l-8.309-1.476c-.361-.064-.805-.098-1.023.198-.095.129-.121.294-.145.452-.117.788-.02 1.886.769 1.99l9.446 1.244c.312.041.647.079.926-.068.563-.295.521-1.186.076-1.64zm-31.907 15.625c-.188.516-.094 1.085.004 1.625.597 3.3 1.245 6.591 1.987 9.861.1.441.211.899.504 1.243.293.344.827.528 1.209.287.573-.364.361-1.233.115-1.865-1.274-3.267-1.636-6.813-1.812-10.316-.031-.614-.149-1.365-.727-1.577-.515-.189-1.092.227-1.28.742zm29.506.609c.671-.256.207-1.4.686-1.934a55.09 55.09 0 00-8.481-1.423c-.674-.06-.987.956-.585 1.501.401.545 1.135.7 1.802.816l1.803.311 4.234.733c.18.031.37.061.541-.004zm-25.12-2.503a54.133 54.133 0 0110.361.387c.685.092 1.636.012 1.728-.674.095-.709-.861-1.02-1.575-1.056a122.035 122.035 0 00-10.425-.072c-.615.022-1.459.334-1.297.928.125.455.737.515 1.208.487zm13.267-11.649c-.162.339-.167.728-.168 1.103l-.023 6.349c-.002.47 0 .956.198 1.382.197.426.649.773 1.111.691.767-.135.909-1.162.866-1.94l-.369-6.754c-.03-.554-.174-1.25-.717-1.363-.368-.077-.736.194-.898.532zm2.361 14.644c-.154-.443-.509-.852-.973-.916-.464-.064-.977.353-.887.813l1.632 8.408c.128.656.303 1.386.87 1.742.566.355 1.55-.121 1.338-.756-.859-2.572-1.725-5.19-1.817-7.901-.015-.468-.01-.948-.163-1.39zm-18.94-5.979c.253-.452.233-1 .206-1.517l-.282-5.408c-.029-.56-.078-1.168-.457-1.582-.379-.413-1.209-.417-1.391.114-.049.141-.044.293-.039.442l.258 7.236c.015.418.061.896.4 1.142.419.303 1.052.024 1.305-.427zm-1.297-19.728c-.479.662-.5 1.539-.503 2.357l-.013 3.377c-.002.604.219 1.428.82 1.37.47-.046.658-.621.736-1.086l1.053-6.271c-.492-.652-1.614-.409-2.093.253zm-3.295 23.485c.494-.044 1.045-.086 1.379-.454.334-.367.126-1.15-.366-1.083l-4.555.624c-.788.108-1.623.237-2.223.758-.6.522-.799 1.581-.185 2.086a14.082 14.082 0 015.95-1.931zm-5.535-13.595c-.454.432-.535 1.301.001 1.625a25.818 25.818 0 015.361-1.173c.448-.049.925-.096 1.284-.369.36-.273.518-.863.193-1.176-.257-.247-.665-.21-1.017-.157l-4.087.612c-.62.093-1.282.206-1.735.638zm28.398-11.634c-.16.171-.209.416-.251.646l-.959 5.279c-.058.319-.094.703.154.91.254.212.667.082.867-.181.2-.263.244-.609.281-.937l.595-5.292c.017-.159.03-.336-.069-.461-.145-.184-.457-.135-.618.036zm-.598 23.307c-.665-.082-1.311.769-.896 1.295.291.369.631.745 1.089.845.459.101 1.028-.233.984-.7-.062-.668-.511-1.359-1.177-1.44zm.264-13.509c.224-.539.278-1.402-.302-1.469-.227-.027-.442.113-.597.279-.723.776-.349 2.258.655 2.599a1.48 1.48 0 00.289-1.382c-.159-.514-.252.469-.045-.027zm-17.973.987c-.136-.496-.548-.963-1.063-.969-.667-.006-1.104.941-.665 1.444.438.503 1.436.2 1.521-.462.075-.586.362.557.207-.013zm.407 13.652a.988.988 0 00.319-.524 1.597 1.597 0 00-1.807-.373.745.745 0 00-.335.271c-.216.358.141.839.553.907.412.068.816-.133 1.185-.327l.085.046z" fill="#00160A"/></svg>