<svg width="312" height="312" fill="none" xmlns="http://www.w3.org/2000/svg"><path d="M200.465 209.3c13.952 1.701 25.923 10.305 35.774 11.484 10.949 1.309 27.506-5.884 44.391 2.583 4.346 2.179 7.915 4.798 6.585 8.053-2.317 5.671-7.193 7.894-17.875 9.435l-1.139.158c-8.258 1.098-17.133 1.364-39.631 1.512l-7.688.059c-27.425.238-43.285 1.523-63.824 3.163l-2.093.17c-37.82 3.112-68.01 2.613-90.567-.836l-.681-.106c-18.225-2.855-29.183-7.576-34.531-12.934-3.15-3.154-4.963-6.095-5.057-9.238-.093-3.143 4.55-6.598 7.195-7.903 7.365-3.634 9.769-4.952 23.928-6.813 6.097-.801 15.231-.737 25.79-1.093 37.875-1.279 96.387-.503 119.423 2.306z" fill="#fff"/><path fill-rule="evenodd" clip-rule="evenodd" d="M218.584 223.446c-24.159 54.755-111.586 52.992-172.419 15.62-11.617-7.138-51.553-40.778-12.247-60.422s26.716-49.817 58.438-85.805c36.684-41.618 105-62.964 153.046-6.968 122.116 142.321-18.683 119.138-26.818 137.575z" fill="#D9E8FF"/><path fill-rule="evenodd" clip-rule="evenodd" d="M67.998 87.288c-1.935-3.11-3.875-4.304-5.783-3.272-1.615.874-1.884 3.209-1.025 6.943l-.515.278a1.456 1.456 0 00-.478 2.148l.276.37c4.03 5.345 7.222 7.534 9.713 6.33 2.094-1.012 2.448-5.322 1.37-13.121a1.04 1.04 0 00-1.104-.895l-.068.007a1.041 1.041 0 00-.351.115l-2.035 1.097zm-5.713 2.834l4.492-2.43-.01-.017c-1.545-2.396-2.854-3.159-3.958-2.561l-.05.03c-.816.497-1.042 2.06-.523 4.733l.049.245zm8.076-2.69l-9.093 4.903a.208.208 0 00-.069.307l.268.358c3.683 4.886 6.454 6.794 8.177 5.961 1.309-.632 1.652-4.474.741-11.348l-.024-.181zm-1.858 7.861a1.248 1.248 0 10-.743.376l.71 1.303.025.041a.416.416 0 00.705-.44l-.697-1.28z" fill="#ECA718"/><path fill-rule="evenodd" clip-rule="evenodd" d="M200.465 209.3c13.952 1.701 25.923 10.305 35.774 11.484 10.949 1.309 27.506-5.884 44.391 2.583 4.346 2.179 7.915 4.798 6.585 8.053-2.317 5.671-7.193 7.894-17.875 9.435l-1.139.158c-8.258 1.098-17.133 1.364-39.631 1.512l-7.688.059c-27.425.238-43.285 1.523-63.823 3.163l-2.094.17c-37.82 3.112-68.01 2.613-90.567-.836l-.681-.106c-18.225-2.855-29.183-7.576-34.531-12.934-3.15-3.154-4.963-6.095-5.056-9.238-.094-3.143 4.55-6.598 7.194-7.903 7.365-3.634 9.769-4.952 23.928-6.813 6.097-.801 15.231-.737 25.79-1.093 37.875-1.279 96.387-.503 119.423 2.306zM54.94 210.72l-.928.124c-13.196 1.789-21.63 5.044-25.627 8.29l-.25.209c-3.067 2.644-3.354 5.616 1.056 10.01 4.823 4.805 17.122 10.225 34.857 12.988 22.202 3.46 52.052 4.464 89.538 1.456l3.93-.317c21.642-1.701 38.246-2.607 68.977-2.823l8.483-.063c18.295-.166 26.072-.493 33.579-1.536l.713-.103c33.15-6.484 9.23-18.118-4.493-18.171-11.752-.046-25.868 3.26-29.799 2.023-12.39-3.9-18.752-9.871-34.511-11.782l-4.582-.549-3.912-.185c-64.11-2.978-109.8-3.13-137.031.429z" fill="#00160A"/><path d="M96.46 60.061a10.239 10.239 0 00-.683.001c-5.61.193-10.013 4.852-9.912 10.447l.005.17.069 2.096c.197 6.297.305 12.57.325 18.817l.034 19.222c.007 6.918.003 13.163-.017 19.277l-.028 6.485c-.11 20.645-.403 35.134-.949 41.441l-.105 1.179c-.66 7.708-.796 18.779-.405 33.188.005.166.013.333.025.499.432 5.841 5.47 10.241 11.3 9.906l.177-.012 1.937-.141a763.003 763.003 0 0154.321-1.938c17.723 0 35.583.619 53.578 1.857.521.036 1.043.039 1.564.009 6.822-.386 12.057-6.175 11.782-12.98l-.01-.206-.136-2.455a1261.432 1261.432 0 01-1.877-66.324l-.002-2.457c0-16.113.755-38.213 2.263-66.307.017-.315.021-.63.011-.945-.19-6.099-5.238-10.902-11.317-10.812l-.184.004-9.2.28c-20.902.616-36.122.938-45.669.966l-1.637.001-1.683-.004c-9.746-.042-24.834-.376-45.272-1.003l-8.304-.26z" fill="#fff"/><path fill-rule="evenodd" clip-rule="evenodd" d="M207.513 59.488c-.737.404-1.708.688-2.913.852 3.102.275 5.542.211 7.318-.193l-.384-.048a86.267 86.267 0 01-4.021-.611zM90.814 208.257l.087.004c.536.037.914.456.865.918-.057.529-.622 1.042-1.24 1.085-.49.034-.831-.344-.777-.93.058-.615.54-1.074 1.065-1.077zm9.821 8.035l.086.003c.536.037.914.456.865.918-.056.53-.622 1.043-1.239 1.085-.49.034-.832-.343-.777-.929.057-.615.538-1.075 1.065-1.077zm52.028-.528c-21.305 4.702 18.697 3.871 34.301 2.841 8.493-.56 15.274 3.682 19.168 3.95.521.035 1.043.039 1.564.009 6.823-.386 12.057-6.175 11.782-12.98l-.01-.207-.136-2.454a1260.348 1260.348 0 01-1.876-66.324l-.003-2.457c0-16.113.755-38.213 2.263-66.307.017-.315.021-.63.011-.945-.19-6.1-11.876 132.694-67.064 144.874z" fill="#E7EAEE"/><path d="M215.849 210.081l.076.002c.388.032.706.436.66.929-.051.547-.522 1.038-.993 1.075-.33.027-.609-.329-.56-.939.051-.625.442-1.058.817-1.067z" fill="#fff"/><path fill-rule="evenodd" clip-rule="evenodd" d="M215.716 213.645c-1.387.11-2.362-1.13-2.241-2.623.117-1.451 1.222-2.602 2.549-2.498 1.305.104 2.241 1.294 2.117 2.633-.12 1.286-1.179 2.389-2.425 2.488zm.209-3.562l-.076-.002c-.375.009-.766.442-.817 1.067-.049.61.23.966.561.939.47-.037.941-.528.992-1.075.046-.493-.272-.897-.66-.929z" fill="#fff"/><path d="M202.654 69.065a8.927 8.927 0 018.91 9.48l-.131 2.188c-.24 4.15-.479 9.08-.718 14.785l-.036.914c-.583 15.349-.602 51.661-.055 108.936a8.928 8.928 0 01-9.203 9.009l-97.944-3.022a8.927 8.927 0 01-8.621-8.181l-.083-1.021c-1.29-16.259-1.367-37.019-.23-62.282l.166-3.622c.58-13.294.626-32.656.137-58.085a8.928 8.928 0 018.6-9.093l.24-.005h98.968z" fill="#fff"/><path fill-rule="evenodd" clip-rule="evenodd" d="M136.803 174.346c4.327.182 8.77-.585 12.624-2.468 4.826-2.358 8.458-6.314 10.468-11.987 2.647-7.472 1.675-15.552-2.131-22.663-3.388-6.329-8.714-11.146-13.624-12.338 0 0 13.624 19.165 11.672 29.641-2.984 16.019-19.009 19.815-19.009 19.815z" fill="#E7EAEE"/><path fill-rule="evenodd" clip-rule="evenodd" d="M139.949 151.84c2.106.874 2.749 2.497 1.929 4.869l-.047.133c-5.333 14.642-11.621 14.775-6.24 0 .652-1.79.49-3.163-.485-4.119a113.8 113.8 0 014.843-.883zm-33.399-17.115c1.38-4.1 3.394-7.182 7.16-9.618l.478-.303c.813-.51 1.814-1.088 2.629-.693 1.035.501 2.533 2.327 1.621 3.044-.618.487-3.163 1.004-5.081 2.684-2.265 1.984-3.895 5.182-3.895 5.965 0 2.554-3.727 1.341-2.912-1.079zm-4.267-58.43C97.547 89.3 97.579 91.881 97.295 89.64c-.92-7.25-1.613-12.013-.52-14.907 1.382-3.664 4.848-4.384 5.741-3.96 1.888.9-.233 5.523-.233 5.523zm77.927 66.837l-1.576-.048c-1.869-.048-3.217-.037-4.347.052-.908.071-1.586.194-1.969.316l-.076.025-.008.036a5.554 5.554 0 00-.086.839l-.004.131c-.025 1.03.099 2.405.347 3.941.202 1.26.479 2.568.768 3.671l.072.271c.113.412.22.769.315 1.048l.034.099.042.016c.58.206 1.735.231 3.96.067l1.512-.119c1.018-.074 1.76-.107 2.492-.098l7.104.149c.994.019 1.892.033 2.772.045l1.596.018c3.985.232 8.365.058 8.91-.934 1.662-3.026 2.445-9.257 1.662-9.298-1.41-.075-3.117-.164-3.927-.153l-1.872.034-1.698.013c-.775.005-1.583.007-2.451.008l-9.736-.022a89.882 89.882 0 01-2.37-.057l-1.466-.05z" fill="#E7EAEE"/><path fill-rule="evenodd" clip-rule="evenodd" d="M105.557 58.114l-9.025-.284a12.467 12.467 0 00-.831.001c-6.899.238-12.3 6.022-12.062 12.921l.069 2.093c.08 2.585.204 5.165.327 7.741.208 4.375.416 8.737.416 13.087l.03 15.778c.027 22.003-.04 58.239-1.017 68.735l-.073.824c-.636 7.436-1.206 17.899-.88 31.388l.052 2.046c.005.201.016.402.03.603.527 7.13 6.734 12.483 13.864 11.956l1.935-.141.32-.022.195.322c.313.518.606 1.001.674 1.238.171.598.19 1.276.09 2.808l-.1 1.437-.027.467c-.146 2.865.184 4.569 1.582 5.852 1.797 1.65 3.701 1.475 7.602 1.117l.175-.017 1.004-.097c1.161-.112 2.466-.021 3.356.04.256.018.477.034.651.041l.328.016c2.239.09 2.594-.647 2.79-2.468.108-1.004-.032-1.794-.622-3.831l-.441-1.502-.147-.522c-.689-2.545-.626-3.816.272-4.431.217-.149 1.127-.419 2.176-.731 1.079-.321 2.305-.686 3.078-1.008a760.76 760.76 0 0131.206-.641c10.93 0 21.911.236 32.945.708-.073.119-.086.292-.008.532.087.271.419.459.843.699 1.125.636 2.898 1.638 2.485 5.531l.002.16c.062 3.069 1.922 4.869 4.915 5.48 2.001.409 4.277.286 6.755-.144 1.228-.213 2.018-.981 2.396-2.15.208-.646.283-1.226.332-2.381 0 0-.546-6.002 2.489-6.602l.271.018c.351.025.703.036 1.055.035l.144.036a.55.55 0 00.409-.048l.235-.011c8.122-.46 14.334-7.417 13.875-15.539l-.137-2.453a1258.695 1258.695 0 01-1.875-68.659c0-15.585.709-36.811 2.126-63.679l.134-2.509c.02-.377.024-.756.013-1.134-.23-7.392-6.409-13.198-13.801-12.969l-4.686.144c-23.217.704-39.922 1.071-50.117 1.1l-1.632.002c-9.518-.007-24.906-.335-46.165-.983zm97.104 166.446a792.585 792.585 0 00-15.442-.846c2.459 1.193 3.336 3.422 3.385 6.505l.001.181c0 1.995 1.552 3.297 3.639 3.723.218.045.442.093.671.143 1.442.313 3.09.67 4.918.37l.277-.046c1.264-.467 1.264-5.008 1.264-5.008.014-.37.027-.61.049-.904l.027-.329c.158-1.653.504-2.888 1.211-3.789zm-100.935 1.225a3.734 3.734 0 00-.518-1.118 751.71 751.71 0 0113.138-.775c-.684.762-.748 1.792-.774 3.022-.021 1.06.193 2.187.643 3.775l.027.095.413 1.404c.504 1.734.656 2.459.614 3.066l-.01.103c-.06.564-.784 1.2-2.008 1.129l-.219-.012c-.524-.079-5.691.012-5.691.012-2.386.241-3.535-.091-4.706-1.166-.786-.722-.996-2.003-.841-4.456l.096-1.377c.121-1.8.111-2.643-.115-3.525l-.049-.177zM95.777 60.062a9.75 9.75 0 01.684 0l8.304.26c20.438.627 35.526.961 45.272 1.003l1.683.004 1.637-.002c9.547-.027 24.767-.35 45.669-.966l9.2-.279.184-.004c6.079-.09 11.127 4.713 11.317 10.811.01.316.006.63-.011.946-1.509 28.094-2.263 50.194-2.263 66.307l.002 2.457a1260.35 1260.35 0 001.877 66.324l.136 2.455.01.206c.275 6.805-4.96 12.594-11.782 12.98-.521.03-1.044.027-1.564-.009a780.464 780.464 0 00-53.578-1.857c-18.107 0-36.214.646-54.321 1.938l-1.938.141-.176.011c-5.83.336-10.868-4.064-11.3-9.905-.012-.166-.02-.333-.025-.499-.39-14.409-.254-25.48.405-33.188l.105-1.179c.546-6.307.84-20.796.949-41.441l.028-6.485c.02-6.115.024-12.359.017-19.277l-.034-19.222c-.02-6.247-.128-12.52-.325-18.817l-.07-2.096-.004-.17c-.101-5.595 4.302-10.254 9.912-10.447zm115.804 17.93a8.927 8.927 0 00-8.927-8.927h-98.968l-.24.006a8.928 8.928 0 00-8.6 9.094c.489 25.428.444 44.79-.137 58.084l-.166 3.622c-1.137 25.263-1.06 46.023.23 62.282l.083 1.021a8.927 8.927 0 008.621 8.181l97.944 3.022c.12.004.241.005.361.004a8.928 8.928 0 008.842-9.013c-.546-57.275-.528-93.587.055-108.936l.036-.914c.239-5.706.478-10.634.718-14.785l.131-2.187c.012-.184.017-.369.017-.553zm-107.809-6.695h98.882a6.696 6.696 0 016.683 7.11 778.175 778.175 0 00-.699 13.484l-.152 3.534c-.59 14.101-.647 47.868-.173 101.355l.079 8.61a6.696 6.696 0 01-6.902 6.756l-97.944-3.022-.147-.006a6.695 6.695 0 01-6.319-6.129c-1.374-16.469-1.466-37.746-.272-63.816l.112-2.413c.564-12.544.644-30.533.242-53.981l-.085-4.657a6.696 6.696 0 016.695-6.825zm-3.421-6.845c.141 1.517-.959 2.735-2.44 2.633-1.355-.093-2.547-1.175-2.686-2.478l-.008-.095c-.086-1.296.907-2.398 2.24-2.54l.1-.008c1.42-.098 2.658 1.025 2.794 2.488zm-2.62-.932l-.087.003c-.536.037-.915.456-.865.919.056.529.622 1.042 1.239 1.085.49.033.832-.344.777-.93-.057-.615-.538-1.075-1.065-1.077zm-7.9 12.766c-1.544.137-2.585-1.349-2.456-3.13.126-1.747 1.325-3.15 2.81-3.02l.096.011c1.364.178 2.307 1.52 2.23 3.024l-.008.105c-.127 1.538-1.28 2.887-2.672 3.01zm.24-4.591l-.076-.004c-.474.006-.995.646-1.062 1.577-.067.93.333 1.5.76 1.462.58-.051 1.185-.759 1.253-1.583.065-.78-.374-1.407-.875-1.452zm115.408-7.243c-.141 1.517.958 2.735 2.44 2.633 1.354-.093 2.546-1.175 2.685-2.478l.008-.095c.087-1.296-.907-2.398-2.239-2.54l-.101-.008c-1.42-.098-2.657 1.025-2.793 2.488zm2.62-.932l.087.003c.536.037.914.456.865.919-.057.529-.622 1.042-1.24 1.085-.49.033-.831-.344-.777-.93.057-.615.539-1.075 1.065-1.077zm5.698 10.213c-.829-1.232-.324-2.793 1.061-3.43 1.335-.614 2.926-.104 3.552 1.175l.042.092c.544 1.224.086 2.635-1.079 3.209l-.087.04c-1.198.532-2.73.04-3.489-1.086zm3.219-1.55l-.041-.076c-.265-.455-.904-.642-1.465-.385-.534.246-.691.73-.416 1.139.345.513 1.072.746 1.559.53.425-.188.598-.725.363-1.208zM88.728 207.447c-1.083 1.072-1.024 2.711.177 3.585 1.098.8 2.706.737 3.65-.172l.067-.067c.9-.938.847-2.42-.083-3.385l-.071-.071c-1.026-.989-2.695-.924-3.74.11zm2.607.97l.064.059c.387.373.407.937.072 1.259-.383.369-1.146.399-1.647.035-.397-.29-.416-.798.003-1.212.439-.434 1.103-.477 1.508-.141zm7.39 10.65c-1.2-.874-1.26-2.514-.177-3.585 1.045-1.034 2.715-1.099 3.74-.111l.072.072c.929.964.982 2.447.083 3.385l-.068.067c-.944.909-2.552.972-3.65.172zm2.494-2.557l-.064-.058c-.405-.336-1.069-.294-1.508.14-.418.414-.4.923-.002 1.212.5.365 1.263.335 1.647-.034.334-.323.314-.887-.073-1.26zM208.63 216c-1.244 1.255-1.277 3.1.048 4.049 1.213.869 3.03.697 4.117-.372 1.126-1.109 1.159-2.893.05-3.978-1.121-1.099-3.003-.921-4.215.301zm3.073.77l.063.059c.46.45.446 1.229-.067 1.734-.553.544-1.525.636-2.112.216-.475-.341-.462-1.059.152-1.678.623-.629 1.49-.73 1.964-.331zm4.013-3.125c-1.387.11-2.362-1.13-2.241-2.623.117-1.451 1.222-2.602 2.549-2.497 1.305.103 2.241 1.293 2.117 2.632-.12 1.286-1.179 2.389-2.425 2.488zm.209-3.561l-.075-.003c-.376.009-.767.442-.818 1.067-.049.61.23.966.561.94.47-.038.941-.529.992-1.075.046-.494-.272-.898-.66-.929z" fill="#00160A"/><path fill-rule="evenodd" clip-rule="evenodd" d="M98.549 215.482c-1.084 1.071-1.024 2.711.176 3.585 1.098.8 2.706.737 3.65-.172l.068-.068c.899-.937.847-2.42-.083-3.384l-.072-.072c-1.025-.988-2.695-.923-3.74.111zm2.606.97l.064.058c.387.373.408.937.073 1.26-.384.369-1.147.398-1.647.034-.398-.289-.416-.798.002-1.212.439-.434 1.104-.476 1.508-.14z" fill="#00160A"/><path d="M211.703 216.77l.064.059c.459.45.445 1.229-.068 1.734-.553.544-1.525.636-2.112.216-.475-.34-.462-1.059.152-1.678.623-.629 1.49-.73 1.964-.331z" fill="#fff"/><path fill-rule="evenodd" clip-rule="evenodd" d="M113.186 120.97c-.515.179-.98.422-1.554.775l-.441.277-.219.139c-3.329 2.149-5.551 4.821-7.132 8.439l-.085.196-.063-.019c-.42-.123-.8-.183-1.207-.149-.867.072-1.675.591-1.963 1.559-.451 1.512-.265 3.242.32 5.012l.11.324c.571 1.642 1.203 2.755 2.254 3.081 1.397.432 6.223-1.481 7.906-3.217 1.201-1.239.72-2.753-.423-3.628l-.105-.077-.11-.076-.125-.082.084-.149c.058-.103.119-.208.183-.313.682-1.132 1.536-2.202 2.4-2.96a6.989 6.989 0 011.157-.808c.679-.386 3.387-1.449 3.843-1.808 1.465-1.151 1.295-2.819.369-4.265-.576-.9-1.482-1.742-2.357-2.166-.919-.445-1.881-.419-2.842-.085zm1.967 1.893c1.035.501 2.533 2.328 1.621 3.045-.618.486-3.163 1.003-5.081 2.684-2.265 1.984-3.895 5.181-3.895 5.964l.258.097c1.412.543 1.95.989 1.614 1.335-1.498 1.546-5.569 2.79-5.87 2.697-.297-.092-2.053-3.576-1.353-5.924.093-.314.906-.075 2.439.716 1.38-4.1 3.394-7.181 7.16-9.618l.478-.303c.813-.51 1.814-1.088 2.629-.693zm1.081 44.331c-8.269-9.036-8.748-24.451.185-34.378 5.55-6.168 18.593-10.14 27.721-7.925 4.91 1.191 10.236 6.008 13.624 12.337 3.806 7.111 4.778 15.191 2.131 22.663-2.01 5.673-5.642 9.629-10.468 11.987-3.854 1.883-8.297 2.651-12.624 2.468-7.809-.328-17.519-3.818-20.569-7.152zm39.562-28.913c-3.111-5.812-7.959-10.197-12.182-11.221l-.251-.059c-8.326-1.889-20.337 1.809-25.285 7.308-8.146 9.053-7.708 23.171-.198 31.378 2.592 2.832 11.749 6.124 19.017 6.43 3.978.167 8.057-.537 11.55-2.244 4.311-2.106 7.533-5.617 9.344-10.728 2.425-6.843 1.53-14.278-1.995-20.864zm-4.299 21.385c4.939-8.671-1.757-27.393-11.108-28.955-8.791-1.469-12.123.663-15.914 3.951l-.733.643c-7.419 6.56-7.419 20.652-.171 27.19 1.822 1.643 9.836 5.857 15.986 4.568 4.077-.855 9.752-3.558 11.94-7.397zm-20.64-26.51c.466-.166.957-.304 1.48-.411a3.656 3.656 0 00-.18.517c-.278 1.019-.249 1.891.05 4.014l.204 1.406.049.355.045.357c.317 2.688.029 4.089-1.172 4.862-1.1.708-2.181.975-4.651 1.262l-.925.105c-1.14.131-1.738.222-2.458.385l-.326.065c-.997.21-1.825.471-2.468.799.424-3.839 1.996-7.491 4.716-9.895 2.565-2.268 3.859-3.183 5.636-3.821zm9.164-.244c-.361-.06-.713-.114-1.055-.162.072.181.133.374.183.578.209.852.245 1.607.194 3.329l-.025.743a61.77 61.77 0 00-.042 1.549v.49c.021 2.178.362 3.626 1.2 4.607l.094.105.037.015c.051.021.117.045.195.071l.083.027c.192.061.432.129.74.21l.516.132 2.199.538c.432.107.817.205 1.185.303l.605.163c1.818.501 3.212.989 4.227 1.533-1.515-6.78-5.684-13.454-10.336-14.231zM150.6 152.13c.126-.08.244-.162.357-.244.054 2.529-.37 4.867-1.4 6.675-1.479 2.596-5.586 5.068-9.597 6.115.102-.256.184-.534.247-.832.195-.916.227-1.964.15-3.449l-.049-.799-.072-1.051c-.138-2.099-.104-2.978.079-3.188.823-.947 1.963-1.309 4.867-1.725l.673-.096c2.427-.355 3.565-.654 4.745-1.406zm-17.059 11.458c.031.377.156.761.359 1.124-1.03-.217-2.1-.53-3.192-.93-2.441-.893-4.808-2.193-5.642-2.945-2.647-2.388-4.171-5.992-4.571-9.787.686.316 1.593.583 2.719.85l.173.041c.454.105.919.203 1.468.311l1.567.305c3.509.721 5.321 1.556 6.148 2.673l.084.116c.548.8.7 1.705.744 4.055l.025 1.674c.019 1.002.05 1.667.118 2.513zm2.64-30.748l.1.009c.948.113 1.148.991 1.036 4.305l-.038 1.149c-.009.346-.013.625-.013.931.002 2.078.25 3.692.918 4.984a.885.885 0 00-.417-.104l-.152.002-.038.001-.017-.007a.89.89 0 00-.763.069l-.023.014-.079.013c-1.947.324-3.882 1.487-4.919 3.027-1.113 1.653-1.058 3.457.212 5.001-1.208-.637-2.811-1.149-4.927-1.596l-.682-.137-.903-.174-.403-.079c-.39-.078-.735-.151-1.067-.226l-.165-.038c-1.007-.234-1.803-.474-2.359-.724l-.088-.041a2.67 2.67 0 01-.404-.23l-.013-.01.025-.025c.068-.068.172-.146.315-.228.488-.282 1.291-.54 2.393-.752l.279-.06c.491-.101.971-.173 1.722-.263l1.217-.139c2.77-.322 4.053-.641 5.491-1.566 2.098-1.35 2.499-3.461 2.056-6.982l-.048-.372a56.896 56.896 0 00-.088-.615l-.138-.951c-.249-1.769-.285-2.528-.121-3.178l.015-.059c.199-.732.707-1.035 2.086-.949zm-2.075 21.09l.078.103c.949 1.28 1.166 2.41 1.221 5.297l.022 1.524c.017.954.042 1.583.096 2.311l.02.262c.042.516.923 1.336 1.895 1.15.758-.144 1.051-1.386.909-4.149l-.02-.346-.111-1.621c-.175-2.655-.12-3.537.487-4.306-1.453.547-3.143.52-4.597-.225zm6.94-1.452c.9-.34 2.047-.571 3.639-.804l.864-.124c2.017-.294 2.992-.535 3.818-1.02l.154-.094c.935-.596 1.024-.715.609-1.05l-.135-.105c-.735-.553-2.155-1.106-4.199-1.679l-.432-.119c-.467-.126-.946-.25-1.51-.39l-2.349-.576a30.224 30.224 0 01-1.088-.29c1.816 1.919 2.116 4.08.868 5.926l-.07.102a6.21 6.21 0 01-.169.223zm-3.993-6.522l.127-.018.09.054c2.92 1.776 3.57 3.71 2.49 5.227-1.074 1.51-3.433 2.032-5.126.959-1.962-1.243-2.288-2.595-1.377-3.947.769-1.142 2.307-2.046 3.796-2.275z" fill="#00160A"/><path d="M167.891 142.523a6.89 6.89 0 01.045-.661c.182-.048.442-.103.798-.154.847-.12 1.929-.17 3.185-.172a109.232 109.232 0 014.163.096c1.24.043 2.495.086 3.61.087 1.273.002 2.571.006 3.88.011 3.212.011 6.492.022 9.66-.011.153-.001.365-.006.626-.011 1.016-.021 2.769-.058 4.574 0 1.131.037 2.198.109 3.043.231.36.052.641.108.846.161.083.229.172.575.241 1.047.152 1.048.159 2.407-.001 3.776-.162 1.385-.473 2.592-.843 3.392a3.383 3.383 0 01-.28.509c-5.484.546-14.522.349-21.865.188l-2.424-.052c-1.02-.021-2.066.048-3.012.121l-.702.056c-.704.057-1.343.109-1.968.135-.821.035-1.445.015-1.911-.063a3.088 3.088 0 01-.231-.047 19.22 19.22 0 01-.262-.886 39.309 39.309 0 01-.831-3.895c-.234-1.452-.366-2.824-.341-3.858zm34.331-.645l.006.009-.006-.009zm-.891 9.075c0-.001.006-.008.02-.018a.102.102 0 01-.02.018zm-33.32-9.477a.37.37 0 010 0z" stroke="#D3D3D3" stroke-width="5.365"/><path fill-rule="evenodd" clip-rule="evenodd" d="M179.67 139.253c1.287.001 2.593.006 3.907.01 2.701.01 5.437.019 8.116.002l1.487-.012c.127-.001.317-.005.555-.01 2.236-.047 8.834-.187 10.285.915 2.374 1.801 1.429 13.144-1.965 13.512-5.632.612-15.097.404-22.548.241l-2.438-.053c-1.085-.022-2.252.073-3.405.166-2.586.21-5.097.413-6.433-.722-.689-.586-3.344-11.734-1.276-13.265 1.58-1.17 6.11-1.012 10.18-.871 1.011.035 1.993.069 2.895.082l.001-.001.001.001c.218.003.431.005.638.005zm-2.722 2.174l.605.019c.15.924.168 2.549.06 4.941l-.08 1.73c-.07 1.616-.096 2.716-.05 3.518l-.525-.011a28.317 28.317 0 00-2.492.098l-1.512.118c-2.225.164-3.38.14-3.96-.066l-.042-.016-.034-.099a18.237 18.237 0 01-.315-1.048l-.072-.271a40.29 40.29 0 01-.769-3.671c-.247-1.536-.371-2.911-.346-3.941l.004-.131c.013-.343.044-.627.086-.839l.008-.036.076-.025c.383-.122 1.061-.246 1.969-.317 1.13-.088 2.478-.099 4.347-.052l1.576.049 1.466.05zm7.114 10.346l-4.314-.09a11.66 11.66 0 01-.046-.924l-.001-.078c-.007-.565.004-1.105.043-2.053l.126-2.79c.076-1.916.078-3.308-.048-4.353l9.232.021c.494 0 .97-.001 1.43-.003-.141 2.777.084 7.634.372 10.346-.778-.001-1.587-.005-2.426-.013l-1.596-.018c-.88-.012-1.778-.026-2.772-.045zm9.062.069c3.429-.029 6.183-.14 8.318-.352l.199-.021.027-.027c.114-.129.247-.337.383-.615l.051-.107c.401-.867.718-2.13.882-3.528.162-1.384.16-2.786-.001-3.894-.074-.511-.179-.93-.297-1.224l-.033-.079-.025-.052-.089-.027a7.404 7.404 0 00-.968-.199c-.791-.118-1.81-.196-3.001-.238a71.092 71.092 0 00-3.495-.028l-1.872.034-.532.004c-.018.302-.03.661-.035 1.063l-.002.13c-.009 1.088.03 2.459.108 3.977l.016.305c.063 1.191.148 2.421.239 3.502l.055.63c.024.269.048.52.072.746zm-9.829-6.587l.203.291c.233.328.452.618.661.873-.28.612-.428 1.299-.474 2.183a.583.583 0 101.164.061c.027-.51.089-.93.2-1.302.646.564 1.21.774 1.804.785h.115a.583.583 0 00.06-1.163l-.06-.003h-.098c-.381-.009-.764-.169-1.286-.696.17-.238.375-.474.62-.725l.625-.619a.582.582 0 10-.82-.828l-.524.516a8.7 8.7 0 00-.672.744l-.213-.288a24.736 24.736 0 01-.344-.489.583.583 0 10-.961.66zm15.918-.555l.006-.356a.583.583 0 10-1.166-.01c-.003.354-.012.672-.027.955a8.711 8.711 0 00-.973-.24l-.723-.135a.583.583 0 00-.217 1.146l.864.163c.344.071.646.152.92.254-.139.729-.367 1.076-.677 1.296l-.081.055-.048.036a.582.582 0 00.699.931l.095-.065c.487-.341.838-.83 1.057-1.659.301.247.587.56.894.968a.583.583 0 00.931-.702c-.532-.707-1.039-1.194-1.613-1.544.03-.329.05-.692.059-1.093z" fill="#00160A"/><path fill-rule="evenodd" clip-rule="evenodd" d="M173.78 144.65l-.092.344a15.98 15.98 0 01-.322 1.046c.473.479.846 1.074 1.192 1.889a.583.583 0 01-1.074.455c-.199-.469-.401-.843-.633-1.155-.413.751-.872 1.141-1.427 1.355l-.107.039a.583.583 0 01-.454-1.072l.055-.024.092-.033c.355-.138.66-.42.97-1.094a6.279 6.279 0 00-.83-.469l-.799-.368a.582.582 0 11.488-1.059l.668.306c.326.152.619.305.886.469.084-.272.169-.578.258-.92a.582.582 0 111.129.291z" fill="#B0E9AF"/></svg>